<svg width="236" height="195" viewBox="0 0 236 195" fill="none" xmlns="http://www.w3.org/2000/svg">
<path d="M235.066 71.494H211.374C199.99 30.2767 162.246 -2.18492e-05 117.403 -2.18492e-05C72.5681 -2.18492e-05 34.8262 30.2767 23.4433 71.494H0V124.029H23.5923C35.1494 164.979 72.7581 195 117.403 195C162.054 195 199.666 164.979 211.224 124.029H235.066V71.494Z" fill="#9E9C9C"/>
<mask id="mask0_18_4" style="mask-type:luminance" maskUnits="userSpaceOnUse" x="25" y="5" width="185" height="185">
<path d="M209.078 97.4997C209.078 148.127 168.034 189.167 117.403 189.167C66.7808 189.167 25.7397 148.127 25.7397 97.4997C25.7397 46.8715 66.7808 5.83221 117.403 5.83221C168.034 5.83221 209.078 46.8715 209.078 97.4997Z" fill="white"/>
</mask>
<g mask="url(#mask0_18_4)">
<path d="M209.078 97.4997C209.078 148.127 168.034 189.167 117.403 189.167C66.7808 189.167 25.7397 148.127 25.7397 97.4997C25.7397 46.8715 66.7808 5.83221 117.403 5.83221C168.034 5.83221 209.078 46.8715 209.078 97.4997Z" fill="url(#paint0_linear_18_4)"/>
</g>
<path d="M40.4907 142.351C38.2647 138.49 36.3352 134.452 34.71 130.31C36.9258 132.2 39.2782 133.836 41.6763 135.362C46.3993 138.314 51.3264 140.818 56.3387 143.095C56.3901 143.283 56.4383 143.472 56.4918 143.664C59.3657 153.591 63.9529 162.927 70.3686 170.478C72.3548 172.819 74.5249 174.978 76.8542 176.903C67.8818 172.363 59.8935 166.418 53.1014 159.409C48.2496 154.233 44.0099 148.497 40.4907 142.351ZM180.965 153.51C180.069 151.981 178.894 150.644 177.638 149.415C175.103 146.967 172.235 144.906 169.291 143.004C168.288 142.371 167.27 141.749 166.25 141.137C168.75 136.457 170.951 131.59 172.852 126.603C176.155 126.783 179.447 126.878 182.752 126.856C186.73 126.812 190.724 126.6 194.649 125.897C196.607 125.528 198.56 125.048 200.388 124.23C201.294 123.816 202.178 123.325 202.94 122.664C203.105 122.514 203.269 122.357 203.425 122.191C199.183 136.62 191.583 149.216 181.707 159.353C181.819 159.11 181.918 158.861 181.984 158.595C182.458 156.841 181.852 155.005 180.965 153.51ZM122.708 183.741C131.876 180.183 140.23 174.192 147.452 166.971C147.854 166.572 148.228 166.159 148.621 165.756C153.488 166.049 158.376 166.13 163.243 165.881C166.745 165.683 170.262 165.308 173.672 164.431C175.272 164.006 176.858 163.457 178.323 162.655C160.915 178.739 137.433 187.67 113.015 186.475C116.299 185.888 119.546 184.965 122.708 183.741ZM100.657 185.003C102.065 184.505 103.44 183.774 104.755 182.885C107.897 180.724 110.717 177.795 113.3 174.605C116.312 170.854 119.009 166.729 121.498 162.428C128.363 163.635 135.274 164.599 142.21 165.254C143.984 165.423 145.753 165.566 147.525 165.687C147.258 165.956 146.996 166.234 146.723 166.499C139.481 173.596 131.101 179.306 122.075 182.619C117.569 184.275 112.914 185.3 108.265 185.579C106.984 185.663 105.701 185.673 104.424 185.636C103.168 185.453 101.913 185.238 100.657 185.003ZM55.4828 112.487C60.0879 112.52 64.7113 112.8 69.3152 113.238C74.6234 113.741 79.9176 114.419 85.1944 115.258C83.7149 124.052 82.701 132.883 82.2804 141.68C82.1494 144.473 82.1051 147.253 82.1337 150.025C75.2205 147.599 68.4064 144.906 61.7448 141.91C60.633 141.409 59.5287 140.9 58.4298 140.377C56.2098 131.398 55.2961 121.956 55.4828 112.487ZM32.3886 122.337C31.617 121.018 31.2569 119.661 31.5614 118.594C31.8272 117.53 32.8067 116.519 34.1295 115.761C35.4437 114.997 36.9977 114.45 38.5967 114.026C41.8121 113.191 45.2254 112.823 48.6363 112.628C49.9226 112.559 51.2095 112.52 52.4968 112.506C52.4945 112.509 52.4968 112.513 52.4945 112.52C52.379 121.438 53.2691 130.323 55.2555 138.844C51.1998 136.826 47.2399 134.648 43.4627 132.223C40.5894 130.368 37.8035 128.363 35.4192 126.051C34.2414 124.894 33.156 123.645 32.3886 122.337ZM203.099 70.7525C202.2 69.2238 201.016 67.8883 199.753 66.6568C197.209 64.2025 194.321 62.1406 191.357 60.2313C187.301 57.646 183.072 55.3421 178.76 53.2228C178.558 52.413 178.362 51.5994 178.144 50.795C176.213 43.8044 173.479 37.0752 169.837 31.027C170.353 30.8197 170.858 30.575 171.328 30.254C172.055 29.7738 172.749 29.0652 172.991 28.1304C173.139 27.5874 173.099 27.038 172.979 26.5162C187.377 37.9294 197.91 53.5157 203.207 70.9452C203.175 70.8824 203.136 70.8158 203.099 70.7525ZM204.374 117.226C204.04 116.275 203.517 115.409 202.931 114.601C201.741 112.989 200.285 111.605 198.765 110.322C195.698 107.763 192.33 105.61 188.895 103.604C186.052 101.96 183.15 100.426 180.215 98.9651C181.039 93.7419 181.539 88.4824 181.71 83.2267C182.911 83.204 184.113 83.172 185.316 83.1098C188.834 82.9165 192.364 82.5446 195.785 81.6704C197.491 81.2227 199.182 80.6446 200.722 79.7633C202.24 78.8945 203.669 77.6013 204.122 75.8425C204.221 75.488 204.263 75.1285 204.276 74.7696C207.794 88.4986 208.106 103.235 204.569 117.892C204.52 117.667 204.452 117.443 204.374 117.226ZM177.319 112.721C178.512 108.24 179.465 103.701 180.187 99.1253C182.932 100.458 185.643 101.864 188.3 103.375C191.726 105.351 195.091 107.478 198.154 110.01C199.67 111.28 201.129 112.654 202.315 114.253C202.903 115.058 203.425 115.918 203.759 116.858C204.099 117.794 204.227 118.835 203.97 119.815C203.713 120.794 203.085 121.631 202.332 122.28C201.574 122.936 200.696 123.424 199.784 123.834C197.964 124.636 196.017 125.109 194.068 125.463C190.156 126.152 186.183 126.344 182.223 126.377C179.166 126.377 176.112 126.259 173.063 126.057C174.705 121.692 176.138 117.239 177.319 112.721ZM158.545 124.56C152.087 123.659 145.666 122.523 139.285 121.217C141.143 115.537 142.838 109.798 144.358 104.016C145.887 98.2695 147.24 92.473 148.42 86.6576C154.616 88.6719 160.753 90.8572 166.817 93.2558C171.139 95.0097 175.434 96.855 179.645 98.8682C178.933 103.483 177.989 108.066 176.803 112.587C175.597 117.136 174.136 121.619 172.465 126.013C167.809 125.69 163.166 125.17 158.545 124.56ZM150.69 133.162C146.229 131.154 141.702 129.297 137.125 127.547C137.735 125.833 138.331 124.112 138.909 122.377C145.553 123.569 152.224 124.58 158.928 125.371C163.354 125.897 167.8 126.307 172.249 126.571C170.367 131.462 168.187 136.234 165.724 140.83C160.872 137.974 155.822 135.463 150.69 133.162ZM88.6036 110.048C96.3359 112.47 104.136 114.639 111.979 116.606C120.725 118.787 129.534 120.695 138.399 122.287C137.828 123.988 137.244 125.673 136.636 127.359C128.25 124.174 119.706 121.407 111.066 118.972C103.447 116.853 95.7523 114.974 87.9795 113.425C88.1852 112.3 88.3844 111.169 88.6036 110.048ZM82.2333 62.094C87.2438 64.1927 92.3225 66.0949 97.4461 67.8429C97.0558 68.9634 96.671 70.0888 96.2893 71.2131C89.4102 69.7743 82.4867 68.5298 75.5107 67.5532C71.991 67.0888 68.4599 66.6742 64.9186 66.3569C66.3055 62.8578 67.8385 59.4264 69.5231 56.0826C73.6772 58.2901 77.932 60.2546 82.2333 62.094ZM90.9075 30.3417C98.2657 31.0378 105.596 32.0869 112.886 33.4104C111.524 35.7603 110.218 38.1573 108.978 40.6035C104.967 48.5095 101.47 56.7544 98.4005 65.1898C93.3088 63.2871 88.2805 61.2355 83.3328 59.0096C79.1906 57.1539 75.102 55.1618 71.1498 52.9706C71.1714 52.9294 71.192 52.8867 71.212 52.8488C75.7245 44.5276 81.1659 36.7628 87.5177 30.0467C88.6491 30.1371 89.7799 30.2323 90.9075 30.3417ZM104.651 16.1141C105.485 16.8449 106.351 17.5048 107.241 18.1192C110.041 20.0257 113.006 21.5327 116.017 22.899C116.953 23.3115 117.897 23.7034 118.839 24.0829C117.62 25.7967 116.444 27.5642 115.313 29.3668C114.878 30.0575 114.458 30.7558 114.034 31.4584C106.542 29.8399 98.9829 28.5093 91.3433 27.5928C90.914 27.5463 90.4815 27.5035 90.0517 27.4553C94.5311 23.082 99.4214 19.2061 104.651 16.1141ZM153.253 15.2675C157.158 17.8068 160.698 20.9985 163.802 24.66C165.518 26.6861 167.1 28.8563 168.544 31.1315C166.988 31.5943 165.4 31.8238 163.818 31.9613C160.524 32.2282 157.245 32.0685 153.996 31.7681C153.589 31.728 153.184 31.676 152.777 31.6268C152.625 30.1701 152.448 28.721 152.217 27.2892C151.55 23.2406 150.547 19.2944 148.874 15.8716C148.173 14.449 147.341 13.1385 146.369 12.012C147.55 12.4158 148.717 12.838 149.873 13.2873C151.027 13.8985 152.154 14.5535 153.253 15.2675ZM172.672 50.3684C166.341 47.5227 159.882 44.9595 153.343 42.6286C153.331 39.1019 153.177 35.6087 152.837 32.1741C153.267 32.2125 153.703 32.2536 154.142 32.2861C157.426 32.527 160.733 32.586 164.04 32.2802C165.615 32.1275 167.187 31.8828 168.729 31.4157C172.438 37.3004 175.283 43.9105 177.27 50.8459C177.457 51.4733 177.611 52.1093 177.777 52.7405C176.085 51.9253 174.385 51.136 172.672 50.3684ZM149.574 80.624C154.43 81.3711 159.303 81.9936 164.194 82.4575C169.808 82.9993 175.45 83.3122 181.093 83.2386C180.94 88.3985 180.46 93.5611 179.672 98.6934C175.654 96.7089 171.566 94.8695 167.444 93.1324C161.237 90.5097 154.942 88.0948 148.587 85.851C148.933 84.1107 149.26 82.3687 149.574 80.624ZM134.721 29.1334C140.315 30.503 145.995 31.5347 151.74 32.0831C152.047 34.6306 152.247 37.2235 152.364 39.843C152.395 40.6609 152.416 41.4859 152.436 42.3087C145.982 40.033 139.447 37.9824 132.857 36.1284C127.314 34.584 121.726 33.169 116.094 31.9088C117.532 29.4512 119.037 27.0705 120.626 24.7899C125.237 26.5438 129.95 27.9523 134.721 29.1334ZM123.653 20.7094C126.143 17.6071 128.849 14.783 131.786 12.752C133.249 11.7478 134.771 10.9526 136.308 10.5114C137.835 10.061 139.382 9.99229 140.809 10.3376C143.736 11.0262 146.062 13.5206 147.686 16.6917C149.323 19.8795 150.371 23.6683 151.087 27.5972C151.32 28.8817 151.511 30.1842 151.673 31.4996C145.976 30.7753 140.368 29.5286 134.862 27.9826C130.362 26.7078 125.918 25.2029 121.595 23.4209C122.266 22.4968 122.949 21.5896 123.653 20.7094ZM133.033 8.5697C133.829 8.71423 134.633 8.86742 135.431 9.03145C134.06 9.49482 132.719 10.1731 131.43 11.0046C128.224 13.0859 125.324 15.9782 122.669 19.126C121.705 20.2725 120.778 21.4721 119.876 22.6922C118.777 22.2175 117.682 21.7271 116.605 21.2134C113.671 19.8232 110.803 18.2691 108.139 16.4189C107.547 16.0037 106.965 15.5679 106.406 15.1154C108.639 13.8833 110.934 12.7963 113.281 11.8837C117.712 10.1482 122.312 9.02008 126.933 8.63736C128.967 8.46576 131.002 8.44898 133.033 8.5697ZM115.003 33.8013C120.738 34.8882 126.439 36.1349 132.103 37.5326C138.944 39.2437 145.738 41.1421 152.457 43.3026C152.503 46.3583 152.454 49.4444 152.297 52.5473C151.864 61.4412 150.806 70.3941 149.275 79.3146C140.33 77.6652 131.469 75.5372 122.711 73.1018C115.275 71.0112 107.914 68.6581 100.665 66.0164C100.709 65.899 100.749 65.7756 100.795 65.6548C103.723 57.5301 106.976 49.5462 110.733 41.9265C112.095 39.1755 113.515 36.4554 115.003 33.8013ZM122.297 77.5634C114.489 75.3992 106.621 73.4255 98.6939 71.7139C99.0414 70.6756 99.4079 69.6438 99.7695 68.6115C107.278 71.0957 114.885 73.2577 122.545 75.174C131.31 77.336 140.153 79.1614 149.062 80.5504C148.76 82.2626 148.438 83.9726 148.104 85.6816C139.598 82.6854 130.982 79.9907 122.297 77.5634ZM93.1118 90.482C94.5858 84.875 96.2271 79.3211 98.014 73.8266C105.912 75.3017 113.77 77.0345 121.574 78.9768C130.435 81.2027 139.243 83.6836 147.939 86.5022C146.776 92.3361 145.425 98.1439 143.925 103.899C142.376 109.678 140.671 115.432 138.79 121.113C129.837 119.271 120.958 117.077 112.155 114.645C104.411 112.483 96.724 110.103 89.1255 107.491C90.2893 101.786 91.6139 96.1102 93.1118 90.482ZM181.151 81.4403C181.142 81.8301 181.122 82.2177 181.114 82.6063C175.312 82.6372 169.524 82.1868 163.773 81.5394C159.088 80.978 154.435 80.2516 149.796 79.4088C149.854 79.0791 149.921 78.751 149.977 78.4252C151.454 69.8382 152.568 61.1998 153.061 52.6063C153.222 49.5992 153.328 46.5862 153.337 43.5927C159.634 45.6384 165.862 47.9081 171.979 50.4702C173.952 51.3158 175.919 52.1905 177.867 53.101C180.231 62.2012 181.29 71.7972 181.151 81.4403ZM181.76 81.5703C181.947 72.0787 181.048 62.6018 178.845 53.5557C182.906 55.4774 186.882 57.5745 190.699 59.9612C193.653 61.8369 196.529 63.8706 199.073 66.2958C200.333 67.5132 201.518 68.8335 202.422 70.3486C203.316 71.8367 203.927 73.6512 203.468 75.4068C203.001 77.1558 201.574 78.4301 200.062 79.2848C198.525 80.1596 196.843 80.7187 195.152 81.154C191.739 82.0071 188.233 82.3573 184.739 82.5289C183.734 82.5744 182.731 82.5944 181.735 82.6047C181.741 82.2583 181.76 81.9145 181.76 81.5703ZM172.665 26.2693C172.812 26.8063 172.865 27.3779 172.717 27.9458C172.47 28.8655 171.778 29.5595 171.055 30.0288C170.61 30.3206 170.142 30.5468 169.663 30.7423C168.222 28.3772 166.641 26.115 164.906 23.9914C162.773 21.3709 160.413 18.9712 157.856 16.8427C163.146 19.5179 168.095 22.6847 172.665 26.2693ZM104.442 13.3025C103.903 12.7157 103.414 12.0813 103.072 11.4035C102.726 10.729 102.578 10.0215 102.737 9.45963C102.841 9.0401 103.133 8.62979 103.542 8.27685C109.454 7.34469 115.502 7.00095 121.615 7.28947C118.651 7.81835 115.713 8.62112 112.839 9.66642C110.012 10.7009 107.246 11.9643 104.559 13.4189C104.523 13.381 104.478 13.3425 104.442 13.3025ZM59.8811 81.698C60.9875 77.4844 62.3089 73.3308 63.8149 69.2503C67.5549 69.5031 71.2943 69.8636 75.0197 70.308C81.8961 71.1108 88.746 72.1561 95.5688 73.3838C93.7895 78.8203 92.1693 84.3104 90.6948 89.8352C89.2375 95.4065 87.9259 101.028 86.7886 106.671C80.2424 104.363 73.7665 101.89 67.3892 99.1876C63.9334 97.7325 60.5079 96.2006 57.1349 94.5782C57.8397 90.2466 58.7519 85.9431 59.8811 81.698ZM31.5039 74.2023C31.5447 74.0334 31.5946 73.8721 31.6375 73.7043C32.1222 72.7911 33.2678 71.939 34.6226 71.3463C36.2383 70.6177 38.0808 70.1473 39.942 69.8014C43.6989 69.115 47.6076 68.9006 51.5089 68.8557C54.5398 68.8324 57.5805 68.906 60.6232 69.0592C59.2012 72.9502 57.9513 76.9041 56.8892 80.9093C55.8293 84.9541 54.9572 89.0481 54.2703 93.1703C51.543 91.8007 48.8599 90.363 46.2306 88.8386C42.8598 86.8687 39.5681 84.7516 36.641 82.301C35.191 81.0814 33.8221 79.7633 32.7766 78.3294C31.8947 77.1487 31.3187 75.8474 31.3455 74.814C31.3995 74.6089 31.4464 74.4053 31.5039 74.2023ZM55.5889 109.453C55.754 105.645 56.1016 101.837 56.6147 98.0427C59.8329 99.5102 63.0857 100.882 66.3547 102.204C72.9172 104.802 79.563 107.146 86.2651 109.296C86.0329 110.515 85.8093 111.733 85.5933 112.953C80.3458 111.958 75.0614 111.125 69.7418 110.489C65.0491 109.965 60.3347 109.571 55.5889 109.453ZM100.953 155.956C95.3052 154.364 89.6982 152.62 84.148 150.723C84.1599 147.629 84.272 144.506 84.4533 141.394C84.9502 132.915 86.0589 124.362 87.5307 115.851C87.5448 115.784 87.5589 115.719 87.5686 115.65C95.2116 116.935 102.813 118.527 110.343 120.387C119.122 122.579 127.831 125.095 136.386 128.066C133.321 136.53 129.839 144.786 125.846 152.687C124.428 155.515 122.917 158.273 121.335 160.955C114.484 159.522 107.687 157.835 100.953 155.956ZM95.0253 183.726C92.1244 182.933 89.8898 180.367 88.3508 177.165C86.7978 173.947 85.838 170.157 85.2052 166.229C84.5551 162.092 84.2498 157.793 84.1729 153.432C89.6608 155.105 95.1926 156.629 100.753 158.023C107.306 159.636 113.908 161.059 120.549 162.26C120.243 162.761 119.941 163.268 119.631 163.762C117.412 167.311 115.046 170.708 112.474 173.784C109.91 176.851 107.128 179.63 104.129 181.587C102.633 182.564 101.086 183.317 99.534 183.703C97.9923 184.11 96.4333 184.127 95.0253 183.726ZM165.205 141.813C160.538 150.318 154.828 158.184 148.228 164.968C146.099 164.794 143.965 164.59 141.85 164.347C135.262 163.564 128.731 162.46 122.246 161.135C123.74 158.479 125.167 155.76 126.534 153.007C130.351 145.297 133.649 137.236 136.603 129.038C136.7 128.772 136.79 128.508 136.885 128.245C141.318 129.798 145.715 131.457 150.053 133.28C155.376 135.566 160.638 138.038 165.661 140.938C165.51 141.228 165.363 141.521 165.205 141.813ZM166.199 141.247C167.033 141.734 167.867 142.229 168.686 142.752C171.631 144.62 174.493 146.65 177.024 149.071C178.279 150.29 179.458 151.608 180.355 153.123C181.241 154.605 181.852 156.423 181.394 158.177C180.926 159.926 179.499 161.206 178 162.055C176.466 162.932 174.789 163.494 173.099 163.936C169.703 164.789 166.208 165.139 162.726 165.317C158.245 165.517 153.767 165.378 149.298 165.049C155.739 158.238 161.242 150.394 165.804 142.002C165.934 141.753 166.062 141.499 166.199 141.247ZM92.742 10.6695C95.5623 9.85804 98.4259 9.18247 101.33 8.65306C101.261 8.81492 101.201 8.98435 101.155 9.15595C100.99 9.78551 100.996 10.441 101.102 11.0046C101.21 11.5724 101.405 12.0726 101.631 12.5224C101.991 13.2234 102.425 13.8167 102.887 14.3581C97.3725 17.554 92.211 21.5701 87.5253 26.1405C87.2054 26.455 86.8958 26.7884 86.5764 27.11C81.0971 26.6141 75.5756 26.3489 70.0173 26.5871C67.1386 26.7284 64.2458 26.9839 61.3513 27.5447C65.0058 24.5263 68.8865 21.7893 72.9784 19.3842C79.1868 15.7238 85.8364 12.7855 92.742 10.6695ZM55.3361 32.9785C55.4168 32.927 55.4985 32.8751 55.5846 32.8285C56.9011 32.0615 58.4633 31.518 60.0678 31.0968C63.2963 30.2659 66.7196 29.8978 70.1472 29.7105C74.735 29.4729 79.3622 29.5432 83.9916 29.8106C78.0911 36.2177 72.9508 43.4714 68.6743 51.2497C68.6348 51.3304 68.5958 51.4067 68.5503 51.4895C67.3437 50.7798 66.148 50.0539 64.97 49.3042C62.0859 47.4464 59.2867 45.4321 56.8897 43.1196C55.7064 41.9579 54.6162 40.7156 53.848 39.4007C53.0665 38.0842 52.703 36.7271 53.0088 35.6613C53.0475 35.5026 53.1086 35.3467 53.1754 35.1919C53.8875 34.4444 54.6043 33.7044 55.3361 32.9785ZM49.7602 39.0169C50.0275 39.9025 50.4113 40.7047 50.8433 41.4355C51.8785 43.1699 53.1608 44.5768 54.4998 45.8684C57.1923 48.4327 60.1561 50.5151 63.1902 52.4406C64.4092 53.2033 65.6451 53.9287 66.8934 54.6308C64.9922 58.36 63.2784 62.1893 61.7448 66.0971C58.3475 65.853 54.9442 65.7036 51.5197 65.7079C47.4839 65.729 43.4242 65.9141 39.3364 66.6281C37.31 66.9968 35.2707 67.4813 33.2503 68.3631C36.3424 59.1519 40.9134 50.4426 46.7996 42.7087C47.7514 41.4512 48.7414 40.2235 49.7602 39.0169ZM29.2481 109.144C27.976 99.6845 28.2608 90.036 30.0305 80.6657C31.3527 82.4158 32.8727 83.8389 34.4456 85.1527C37.6443 87.7906 41.0851 89.9553 44.5825 91.9723C47.5793 93.6731 50.6335 95.2321 53.7254 96.7018C53.1331 100.925 52.7582 105.172 52.589 109.423C51.2328 109.423 49.87 109.442 48.5055 109.504C44.9332 109.686 41.3428 110.038 37.7467 110.94C35.9544 111.408 34.1511 111.999 32.4028 112.996C31.6265 113.442 30.8626 113.985 30.1599 114.673C29.8032 112.834 29.4923 110.995 29.2481 109.144ZM82.098 178.349C78.2703 175.732 74.8286 172.483 71.8275 168.784C66.2102 161.867 62.1893 153.452 59.5341 144.516C59.9006 144.669 60.2632 144.832 60.6292 144.989C67.6972 147.953 74.9049 150.528 82.1906 152.811C82.2106 153.402 82.2187 153.989 82.2469 154.575C82.4369 158.833 82.8385 163.052 83.5867 167.107C84.3385 171.16 85.432 175.107 87.1892 178.498C87.9026 179.864 88.7384 181.117 89.7036 182.201C88.8938 181.941 88.0899 181.666 87.2953 181.379C85.5019 180.495 83.7637 179.492 82.098 178.349ZM141.176 6.78982C91.4965 -6.33454 40.4015 23.403 27.2778 73.0856C14.1549 122.767 43.8957 173.862 93.5762 186.983C143.258 200.107 194.352 170.366 207.473 120.686C220.596 71.0036 190.856 19.9098 141.176 6.78982Z" fill="#262626"/>
<path d="M40.4907 142.351C38.2647 138.49 36.3352 134.452 34.71 130.31C36.9258 132.2 39.2782 133.836 41.6763 135.362C46.3993 138.314 51.3264 140.818 56.3387 143.095C56.3901 143.283 56.4383 143.472 56.4918 143.664C59.3657 153.591 63.9529 162.927 70.3686 170.478C72.3548 172.819 74.5249 174.978 76.8542 176.903C67.8818 172.363 59.8935 166.418 53.1014 159.409C48.2496 154.233 44.0099 148.497 40.4907 142.351ZM180.965 153.51C180.069 151.981 178.894 150.644 177.638 149.415C175.103 146.967 172.235 144.906 169.291 143.004C168.288 142.371 167.27 141.749 166.25 141.137C168.75 136.457 170.951 131.59 172.852 126.603C176.155 126.783 179.447 126.878 182.752 126.856C186.73 126.812 190.724 126.6 194.649 125.897C196.607 125.528 198.56 125.048 200.388 124.23C201.294 123.816 202.178 123.325 202.94 122.664C203.105 122.514 203.269 122.357 203.425 122.191C199.183 136.62 191.583 149.216 181.707 159.353C181.819 159.11 181.918 158.861 181.984 158.595C182.458 156.841 181.852 155.005 180.965 153.51ZM122.708 183.741C131.876 180.183 140.23 174.192 147.452 166.971C147.854 166.572 148.228 166.159 148.621 165.756C153.488 166.049 158.376 166.13 163.243 165.881C166.745 165.683 170.262 165.308 173.672 164.431C175.272 164.006 176.858 163.457 178.323 162.655C160.915 178.739 137.433 187.67 113.015 186.475C116.299 185.888 119.546 184.965 122.708 183.741ZM100.657 185.003C102.065 184.505 103.44 183.774 104.755 182.885C107.897 180.724 110.717 177.795 113.3 174.605C116.312 170.854 119.009 166.729 121.498 162.428C128.363 163.635 135.274 164.599 142.21 165.254C143.984 165.423 145.753 165.566 147.525 165.687C147.258 165.956 146.996 166.234 146.723 166.499C139.481 173.596 131.101 179.306 122.075 182.619C117.569 184.275 112.914 185.3 108.265 185.579C106.984 185.663 105.701 185.673 104.424 185.636C103.168 185.453 101.913 185.238 100.657 185.003ZM55.4828 112.487C60.0879 112.52 64.7113 112.8 69.3152 113.238C74.6234 113.741 79.9176 114.419 85.1944 115.258C83.7149 124.052 82.701 132.883 82.2804 141.68C82.1494 144.473 82.1051 147.253 82.1337 150.025C75.2205 147.599 68.4064 144.906 61.7448 141.91C60.633 141.409 59.5287 140.9 58.4298 140.377C56.2098 131.398 55.2961 121.956 55.4828 112.487ZM32.3886 122.337C31.617 121.018 31.2569 119.661 31.5614 118.594C31.8272 117.53 32.8067 116.519 34.1295 115.761C35.4437 114.997 36.9977 114.45 38.5967 114.026C41.8121 113.191 45.2254 112.823 48.6363 112.628C49.9226 112.559 51.2095 112.52 52.4968 112.506C52.4945 112.509 52.4968 112.513 52.4945 112.52C52.379 121.438 53.2691 130.323 55.2555 138.844C51.1998 136.826 47.2399 134.648 43.4627 132.223C40.5894 130.368 37.8035 128.363 35.4192 126.051C34.2414 124.894 33.156 123.645 32.3886 122.337ZM203.099 70.7525C202.2 69.2238 201.016 67.8883 199.753 66.6568C197.209 64.2025 194.321 62.1406 191.357 60.2313C187.301 57.646 183.072 55.3421 178.76 53.2228C178.558 52.413 178.362 51.5994 178.144 50.795C176.213 43.8044 173.479 37.0752 169.837 31.027C170.353 30.8197 170.858 30.575 171.328 30.254C172.055 29.7738 172.749 29.0652 172.991 28.1304C173.139 27.5874 173.099 27.038 172.979 26.5162C187.377 37.9294 197.91 53.5157 203.207 70.9452C203.175 70.8824 203.136 70.8158 203.099 70.7525ZM204.374 117.226C204.04 116.275 203.517 115.409 202.931 114.601C201.741 112.989 200.285 111.605 198.765 110.322C195.698 107.763 192.33 105.61 188.895 103.604C186.052 101.96 183.15 100.426 180.215 98.9651C181.039 93.7419 181.539 88.4824 181.71 83.2267C182.911 83.204 184.113 83.172 185.316 83.1098C188.834 82.9165 192.364 82.5446 195.785 81.6704C197.491 81.2227 199.182 80.6446 200.722 79.7633C202.24 78.8945 203.669 77.6013 204.122 75.8425C204.221 75.488 204.263 75.1285 204.276 74.7696C207.794 88.4986 208.106 103.235 204.569 117.892C204.52 117.667 204.452 117.443 204.374 117.226ZM177.319 112.721C178.512 108.24 179.465 103.701 180.187 99.1253C182.932 100.458 185.643 101.864 188.3 103.375C191.726 105.351 195.091 107.478 198.154 110.01C199.67 111.28 201.129 112.654 202.315 114.253C202.903 115.058 203.425 115.918 203.759 116.858C204.099 117.794 204.227 118.835 203.97 119.815C203.713 120.794 203.085 121.631 202.332 122.28C201.574 122.936 200.696 123.424 199.784 123.834C197.964 124.636 196.017 125.109 194.068 125.463C190.156 126.152 186.183 126.344 182.223 126.377C179.166 126.377 176.112 126.259 173.063 126.057C174.705 121.692 176.138 117.239 177.319 112.721ZM158.545 124.56C152.087 123.659 145.666 122.523 139.285 121.217C141.143 115.537 142.838 109.798 144.358 104.016C145.887 98.2695 147.24 92.473 148.42 86.6576C154.616 88.6719 160.753 90.8572 166.817 93.2558C171.139 95.0097 175.434 96.855 179.645 98.8682C178.933 103.483 177.989 108.066 176.803 112.587C175.597 117.136 174.136 121.619 172.465 126.013C167.809 125.69 163.166 125.17 158.545 124.56ZM150.69 133.162C146.229 131.154 141.702 129.297 137.125 127.547C137.735 125.833 138.331 124.112 138.909 122.377C145.553 123.569 152.224 124.58 158.928 125.371C163.354 125.897 167.8 126.307 172.249 126.571C170.367 131.462 168.187 136.234 165.724 140.83C160.872 137.974 155.822 135.463 150.69 133.162ZM88.6036 110.048C96.3359 112.47 104.136 114.639 111.979 116.606C120.725 118.787 129.534 120.695 138.399 122.287C137.828 123.988 137.244 125.673 136.636 127.359C128.25 124.174 119.706 121.407 111.066 118.972C103.447 116.853 95.7523 114.974 87.9795 113.425C88.1852 112.3 88.3844 111.169 88.6036 110.048ZM82.2333 62.094C87.2438 64.1927 92.3225 66.0949 97.4461 67.8429C97.0558 68.9634 96.671 70.0888 96.2893 71.2131C89.4102 69.7743 82.4867 68.5298 75.5107 67.5532C71.991 67.0888 68.4599 66.6742 64.9186 66.3569C66.3055 62.8578 67.8385 59.4264 69.5231 56.0826C73.6772 58.2901 77.932 60.2546 82.2333 62.094ZM90.9075 30.3417C98.2657 31.0378 105.596 32.0869 112.886 33.4104C111.524 35.7603 110.218 38.1573 108.978 40.6035C104.967 48.5095 101.47 56.7544 98.4005 65.1898C93.3088 63.2871 88.2805 61.2355 83.3328 59.0096C79.1906 57.1539 75.102 55.1618 71.1498 52.9706C71.1714 52.9294 71.192 52.8867 71.212 52.8488C75.7245 44.5276 81.1659 36.7628 87.5177 30.0467C88.6491 30.1371 89.7799 30.2323 90.9075 30.3417ZM104.651 16.1141C105.485 16.8449 106.351 17.5048 107.241 18.1192C110.041 20.0257 113.006 21.5327 116.017 22.899C116.953 23.3115 117.897 23.7034 118.839 24.0829C117.62 25.7967 116.444 27.5642 115.313 29.3668C114.878 30.0575 114.458 30.7558 114.034 31.4584C106.542 29.8399 98.9829 28.5093 91.3433 27.5928C90.914 27.5463 90.4815 27.5035 90.0517 27.4553C94.5311 23.082 99.4214 19.2061 104.651 16.1141ZM153.253 15.2675C157.158 17.8068 160.698 20.9985 163.802 24.66C165.518 26.6861 167.1 28.8563 168.544 31.1315C166.988 31.5943 165.4 31.8238 163.818 31.9613C160.524 32.2282 157.245 32.0685 153.996 31.7681C153.589 31.728 153.184 31.676 152.777 31.6268C152.625 30.1701 152.448 28.721 152.217 27.2892C151.55 23.2406 150.547 19.2944 148.874 15.8716C148.173 14.449 147.341 13.1385 146.369 12.012C147.55 12.4158 148.717 12.838 149.873 13.2873C151.027 13.8985 152.154 14.5535 153.253 15.2675ZM172.672 50.3684C166.341 47.5227 159.882 44.9595 153.343 42.6286C153.331 39.1019 153.177 35.6087 152.837 32.1741C153.267 32.2125 153.703 32.2536 154.142 32.2861C157.426 32.527 160.733 32.586 164.04 32.2802C165.615 32.1275 167.187 31.8828 168.729 31.4157C172.438 37.3004 175.283 43.9105 177.27 50.8459C177.457 51.4733 177.611 52.1093 177.777 52.7405C176.085 51.9253 174.385 51.136 172.672 50.3684ZM149.574 80.624C154.43 81.3711 159.303 81.9936 164.194 82.4575C169.808 82.9993 175.45 83.3122 181.093 83.2386C180.94 88.3985 180.46 93.5611 179.672 98.6934C175.654 96.7089 171.566 94.8695 167.444 93.1324C161.237 90.5097 154.942 88.0948 148.587 85.851C148.933 84.1107 149.26 82.3687 149.574 80.624ZM134.721 29.1334C140.315 30.503 145.995 31.5347 151.74 32.0831C152.047 34.6306 152.247 37.2235 152.364 39.843C152.395 40.6609 152.416 41.4859 152.436 42.3087C145.982 40.033 139.447 37.9824 132.857 36.1284C127.314 34.584 121.726 33.169 116.094 31.9088C117.532 29.4512 119.037 27.0705 120.626 24.7899C125.237 26.5438 129.95 27.9523 134.721 29.1334ZM123.653 20.7094C126.143 17.6071 128.849 14.783 131.786 12.752C133.249 11.7478 134.771 10.9526 136.308 10.5114C137.835 10.061 139.382 9.99229 140.809 10.3376C143.736 11.0262 146.062 13.5206 147.686 16.6917C149.323 19.8795 150.371 23.6683 151.087 27.5972C151.32 28.8817 151.511 30.1842 151.673 31.4996C145.976 30.7753 140.368 29.5286 134.862 27.9826C130.362 26.7078 125.918 25.2029 121.595 23.4209C122.266 22.4968 122.949 21.5896 123.653 20.7094ZM133.033 8.5697C133.829 8.71423 134.633 8.86742 135.431 9.03145C134.06 9.49482 132.719 10.1731 131.43 11.0046C128.224 13.0859 125.324 15.9782 122.669 19.126C121.705 20.2725 120.778 21.4721 119.876 22.6922C118.777 22.2175 117.682 21.7271 116.605 21.2134C113.671 19.8232 110.803 18.2691 108.139 16.4189C107.547 16.0037 106.965 15.5679 106.406 15.1154C108.639 13.8833 110.934 12.7963 113.281 11.8837C117.712 10.1482 122.312 9.02008 126.933 8.63736C128.967 8.46576 131.002 8.44898 133.033 8.5697ZM115.003 33.8013C120.738 34.8882 126.439 36.1349 132.103 37.5326C138.944 39.2437 145.738 41.1421 152.457 43.3026C152.503 46.3583 152.454 49.4444 152.297 52.5473C151.864 61.4412 150.806 70.3941 149.275 79.3146C140.33 77.6652 131.469 75.5372 122.711 73.1018C115.275 71.0112 107.914 68.6581 100.665 66.0164C100.709 65.899 100.749 65.7756 100.795 65.6548C103.723 57.5301 106.976 49.5462 110.733 41.9265C112.095 39.1755 113.515 36.4554 115.003 33.8013ZM122.297 77.5634C114.489 75.3992 106.621 73.4255 98.6939 71.7139C99.0414 70.6756 99.4079 69.6438 99.7695 68.6115C107.278 71.0957 114.885 73.2577 122.545 75.174C131.31 77.336 140.153 79.1614 149.062 80.5504C148.76 82.2626 148.438 83.9726 148.104 85.6816C139.598 82.6854 130.982 79.9907 122.297 77.5634ZM93.1118 90.482C94.5858 84.875 96.2271 79.3211 98.014 73.8266C105.912 75.3017 113.77 77.0345 121.574 78.9768C130.435 81.2027 139.243 83.6836 147.939 86.5022C146.776 92.3361 145.425 98.1439 143.925 103.899C142.376 109.678 140.671 115.432 138.79 121.113C129.837 119.271 120.958 117.077 112.155 114.645C104.411 112.483 96.724 110.103 89.1255 107.491C90.2893 101.786 91.6139 96.1102 93.1118 90.482ZM181.151 81.4403C181.142 81.8301 181.122 82.2177 181.114 82.6063C175.312 82.6372 169.524 82.1868 163.773 81.5394C159.088 80.978 154.435 80.2516 149.796 79.4088C149.854 79.0791 149.921 78.751 149.977 78.4252C151.454 69.8382 152.568 61.1998 153.061 52.6063C153.222 49.5992 153.328 46.5862 153.337 43.5927C159.634 45.6384 165.862 47.9081 171.979 50.4702C173.952 51.3158 175.919 52.1905 177.867 53.101C180.231 62.2012 181.29 71.7972 181.151 81.4403ZM181.76 81.5703C181.947 72.0787 181.048 62.6018 178.845 53.5557C182.906 55.4774 186.882 57.5745 190.699 59.9612C193.653 61.8369 196.529 63.8706 199.073 66.2958C200.333 67.5132 201.518 68.8335 202.422 70.3486C203.316 71.8367 203.927 73.6512 203.468 75.4068C203.001 77.1558 201.574 78.4301 200.062 79.2848C198.525 80.1596 196.843 80.7187 195.152 81.154C191.739 82.0071 188.233 82.3573 184.739 82.5289C183.734 82.5744 182.731 82.5944 181.735 82.6047C181.741 82.2583 181.76 81.9145 181.76 81.5703ZM172.665 26.2693C172.812 26.8063 172.865 27.3779 172.717 27.9458C172.47 28.8655 171.778 29.5595 171.055 30.0288C170.61 30.3206 170.142 30.5468 169.663 30.7423C168.222 28.3772 166.641 26.115 164.906 23.9914C162.773 21.3709 160.413 18.9712 157.856 16.8427C163.146 19.5179 168.095 22.6847 172.665 26.2693ZM104.442 13.3025C103.903 12.7157 103.414 12.0813 103.072 11.4035C102.726 10.729 102.578 10.0215 102.737 9.45963C102.841 9.0401 103.133 8.62979 103.542 8.27685C109.454 7.34469 115.502 7.00095 121.615 7.28947C118.651 7.81835 115.713 8.62112 112.839 9.66642C110.012 10.7009 107.246 11.9643 104.559 13.4189C104.523 13.381 104.478 13.3425 104.442 13.3025ZM59.8811 81.698C60.9875 77.4844 62.3089 73.3308 63.8149 69.2503C67.5549 69.5031 71.2943 69.8636 75.0197 70.308C81.8961 71.1108 88.746 72.1561 95.5688 73.3838C93.7895 78.8203 92.1693 84.3104 90.6948 89.8352C89.2375 95.4065 87.9259 101.028 86.7886 106.671C80.2424 104.363 73.7665 101.89 67.3892 99.1876C63.9334 97.7325 60.5079 96.2006 57.1349 94.5782C57.8397 90.2466 58.7519 85.9431 59.8811 81.698ZM31.5039 74.2023C31.5447 74.0334 31.5946 73.8721 31.6375 73.7043C32.1222 72.7911 33.2678 71.939 34.6226 71.3463C36.2383 70.6177 38.0808 70.1473 39.942 69.8014C43.6989 69.115 47.6076 68.9006 51.5089 68.8557C54.5398 68.8324 57.5805 68.906 60.6232 69.0592C59.2012 72.9502 57.9513 76.9041 56.8892 80.9093C55.8293 84.9541 54.9572 89.0481 54.2703 93.1703C51.543 91.8007 48.8599 90.363 46.2306 88.8386C42.8598 86.8687 39.5681 84.7516 36.641 82.301C35.191 81.0814 33.8221 79.7633 32.7766 78.3294C31.8947 77.1487 31.3187 75.8474 31.3455 74.814C31.3995 74.6089 31.4464 74.4053 31.5039 74.2023ZM55.5889 109.453C55.754 105.645 56.1016 101.837 56.6147 98.0427C59.8329 99.5102 63.0857 100.882 66.3547 102.204C72.9172 104.802 79.563 107.146 86.2651 109.296C86.0329 110.515 85.8093 111.733 85.5933 112.953C80.3458 111.958 75.0614 111.125 69.7418 110.489C65.0491 109.965 60.3347 109.571 55.5889 109.453ZM100.953 155.956C95.3052 154.364 89.6982 152.62 84.148 150.723C84.1599 147.629 84.272 144.506 84.4533 141.394C84.9502 132.915 86.0589 124.362 87.5307 115.851C87.5448 115.784 87.5589 115.719 87.5686 115.65C95.2116 116.935 102.813 118.527 110.343 120.387C119.122 122.579 127.831 125.095 136.386 128.066C133.321 136.53 129.839 144.786 125.846 152.687C124.428 155.515 122.917 158.273 121.335 160.955C114.484 159.522 107.687 157.835 100.953 155.956ZM95.0253 183.726C92.1244 182.933 89.8898 180.367 88.3508 177.165C86.7978 173.947 85.838 170.157 85.2052 166.229C84.5551 162.092 84.2498 157.793 84.1729 153.432C89.6608 155.105 95.1926 156.629 100.753 158.023C107.306 159.636 113.908 161.059 120.549 162.26C120.243 162.761 119.941 163.268 119.631 163.762C117.412 167.311 115.046 170.708 112.474 173.784C109.91 176.851 107.128 179.63 104.129 181.587C102.633 182.564 101.086 183.317 99.534 183.703C97.9923 184.11 96.4333 184.127 95.0253 183.726ZM165.205 141.813C160.538 150.318 154.828 158.184 148.228 164.968C146.099 164.794 143.965 164.59 141.85 164.347C135.262 163.564 128.731 162.46 122.246 161.135C123.74 158.479 125.167 155.76 126.534 153.007C130.351 145.297 133.649 137.236 136.603 129.038C136.7 128.772 136.79 128.508 136.885 128.245C141.318 129.798 145.715 131.457 150.053 133.28C155.376 135.566 160.638 138.038 165.661 140.938C165.51 141.228 165.363 141.521 165.205 141.813ZM166.199 141.247C167.033 141.734 167.867 142.229 168.686 142.752C171.631 144.62 174.493 146.65 177.024 149.071C178.279 150.29 179.458 151.608 180.355 153.123C181.241 154.605 181.852 156.423 181.394 158.177C180.926 159.926 179.499 161.206 178 162.055C176.466 162.932 174.789 163.494 173.099 163.936C169.703 164.789 166.208 165.139 162.726 165.317C158.245 165.517 153.767 165.378 149.298 165.049C155.739 158.238 161.242 150.394 165.804 142.002C165.934 141.753 166.062 141.499 166.199 141.247ZM92.742 10.6695C95.5623 9.85804 98.4259 9.18247 101.33 8.65306C101.261 8.81492 101.201 8.98435 101.155 9.15595C100.99 9.78551 100.996 10.441 101.102 11.0046C101.21 11.5724 101.405 12.0726 101.631 12.5224C101.991 13.2234 102.425 13.8167 102.887 14.3581C97.3725 17.554 92.211 21.5701 87.5253 26.1405C87.2054 26.455 86.8958 26.7884 86.5764 27.11C81.0971 26.6141 75.5756 26.3489 70.0173 26.5871C67.1386 26.7284 64.2458 26.9839 61.3513 27.5447C65.0058 24.5263 68.8865 21.7893 72.9784 19.3842C79.1868 15.7238 85.8364 12.7855 92.742 10.6695ZM55.3361 32.9785C55.4168 32.927 55.4985 32.8751 55.5846 32.8285C56.9011 32.0615 58.4633 31.518 60.0678 31.0968C63.2963 30.2659 66.7196 29.8978 70.1472 29.7105C74.735 29.4729 79.3622 29.5432 83.9916 29.8106C78.0911 36.2177 72.9508 43.4714 68.6743 51.2497C68.6348 51.3304 68.5958 51.4067 68.5503 51.4895C67.3437 50.7798 66.148 50.0539 64.97 49.3042C62.0859 47.4464 59.2867 45.4321 56.8897 43.1196C55.7064 41.9579 54.6162 40.7156 53.848 39.4007C53.0665 38.0842 52.703 36.7271 53.0088 35.6613C53.0475 35.5026 53.1086 35.3467 53.1754 35.1919C53.8875 34.4444 54.6043 33.7044 55.3361 32.9785ZM49.7602 39.0169C50.0275 39.9025 50.4113 40.7047 50.8433 41.4355C51.8785 43.1699 53.1608 44.5768 54.4998 45.8684C57.1923 48.4327 60.1561 50.5151 63.1902 52.4406C64.4092 53.2033 65.6451 53.9287 66.8934 54.6308C64.9922 58.36 63.2784 62.1893 61.7448 66.0971C58.3475 65.853 54.9442 65.7036 51.5197 65.7079C47.4839 65.729 43.4242 65.9141 39.3364 66.6281C37.31 66.9968 35.2707 67.4813 33.2503 68.3631C36.3424 59.1519 40.9134 50.4426 46.7996 42.7087C47.7514 41.4512 48.7414 40.2235 49.7602 39.0169ZM29.2481 109.144C27.976 99.6845 28.2608 90.036 30.0305 80.6657C31.3527 82.4158 32.8727 83.8389 34.4456 85.1527C37.6443 87.7906 41.0851 89.9553 44.5825 91.9723C47.5793 93.6731 50.6335 95.2321 53.7254 96.7018C53.1331 100.925 52.7582 105.172 52.589 109.423C51.2328 109.423 49.87 109.442 48.5055 109.504C44.9332 109.686 41.3428 110.038 37.7467 110.94C35.9544 111.408 34.1511 111.999 32.4028 112.996C31.6265 113.442 30.8626 113.985 30.1599 114.673C29.8032 112.834 29.4923 110.995 29.2481 109.144ZM82.098 178.349C78.2703 175.732 74.8286 172.483 71.8275 168.784C66.2102 161.867 62.1893 153.452 59.5341 144.516C59.9006 144.669 60.2632 144.832 60.6292 144.989C67.6972 147.953 74.9049 150.528 82.1906 152.811C82.2106 153.402 82.2187 153.989 82.2469 154.575C82.4369 158.833 82.8385 163.052 83.5867 167.107C84.3385 171.16 85.432 175.107 87.1892 178.498C87.9026 179.864 88.7384 181.117 89.7036 182.201C88.8938 181.941 88.0899 181.666 87.2953 181.379C85.5019 180.495 83.7637 179.492 82.098 178.349ZM141.176 6.78982C91.4965 -6.33454 40.4015 23.403 27.2778 73.0856C14.1549 122.767 43.8957 173.862 93.5762 186.983C143.258 200.107 194.352 170.366 207.473 120.686C220.596 71.0036 190.856 19.9098 141.176 6.78982Z" stroke="#262626" stroke-width="0.666667"/>
<path d="M3.59113 75.0776V120.449H231.364V75.0776H3.59113Z" fill="#262626"/>
<path d="M198.375 103.945C198.525 103.945 198.609 103.867 198.609 103.756C198.609 103.633 198.525 103.568 198.375 103.568H198.096V103.945H198.375ZM197.876 103.373H198.395C198.648 103.373 198.836 103.497 198.836 103.737C198.836 103.925 198.726 104.042 198.57 104.088L198.875 104.522H198.609L198.337 104.127H198.096V104.522H197.876V103.373ZM199.317 103.97V103.964C199.317 103.412 198.888 102.957 198.317 102.957C197.752 102.957 197.317 103.419 197.317 103.97V103.977C197.317 104.529 197.746 104.983 198.317 104.983C198.881 104.983 199.317 104.522 199.317 103.97ZM197.188 103.977V103.97C197.188 103.354 197.687 102.835 198.317 102.835C198.953 102.835 199.446 103.348 199.446 103.964V103.97C199.446 104.587 198.947 105.107 198.317 105.107C197.681 105.107 197.188 104.594 197.188 103.977Z" fill="#9E9C9C"/>
<path d="M35.0113 102.695H36.2832L36.2455 113.86H35.0037L35.0113 102.695Z" fill="#9E9C9C"/>
<path d="M42.0094 102.695H43.2043L50.2391 111.618L50.2417 102.695H51.4702V113.86H50.4827L43.2612 104.725L43.228 113.86H42.0223L42.0094 102.695Z" fill="#9E9C9C"/>
<path d="M60.0527 103.871H56.31V102.704H65.0892L65.0848 103.862H61.3383V113.869H60.0608L60.0527 103.871Z" fill="#9E9C9C"/>
<path d="M69.9345 102.658H78.0089V103.808H71.2088L71.2001 107.606L77.2987 107.622L77.29 108.765L71.2001 108.773L71.2088 112.672L78.0852 112.697L78.0917 113.823H69.9345V102.658Z" fill="#9E9C9C"/>
<path d="M87.4874 108.407C89.8871 108.413 90.6655 107.313 90.6931 105.958C90.5302 104.852 90.0322 103.843 87.5432 103.843L84.3597 103.866L84.3559 108.385L87.4874 108.407ZM83.1038 102.695H87.5724C89.2581 102.695 90.3862 103.059 91.1305 103.837C91.4656 104.187 91.9512 105.111 91.9512 105.909C91.9512 107.776 90.8853 108.937 88.9344 109.298L92.3626 113.86L90.8041 113.86L87.554 109.532H84.3819L84.364 113.86H83.106L83.1038 102.695Z" fill="#9E9C9C"/>
<path d="M97.1257 102.695H98.3279L105.362 111.656L105.361 102.695H106.589L106.592 113.86H105.58L98.3842 104.725L98.3745 113.86H97.1414L97.1257 102.695Z" fill="#9E9C9C"/>
<path d="M119.47 109.763L116.943 104.092L114.386 109.763H119.47ZM116.365 102.615H117.543L122.631 113.86H121.279L119.991 110.927L113.895 110.917L112.57 113.86H111.27L116.365 102.615Z" fill="#9E9C9C"/>
<path d="M128.824 103.855L125.086 103.865V102.695H133.865V103.865H130.111L130.103 113.86H128.834L128.824 103.855Z" fill="#9E9C9C"/>
<path d="M138.821 102.695H140.08V113.86H138.821V102.695Z" fill="#9E9C9C"/>
<path d="M155.431 108.288V108.256C155.431 105.497 153.357 103.638 151.04 103.662C148.272 103.691 146.663 105.834 146.653 108.245V108.277C146.663 110.918 148.42 112.353 149.845 112.745C152.902 113.588 155.545 111.116 155.431 108.288ZM145.343 108.309V108.277C145.343 105.231 147.666 102.508 150.951 102.504C154.549 102.5 156.726 105.192 156.726 108.238C156.85 111.571 153.745 114.856 149.579 113.9C147.289 113.375 145.394 111.164 145.343 108.309Z" fill="#9E9C9C"/>
<path d="M161.877 102.695H163.062L170.094 111.644L170.099 102.695H171.339V113.86H170.323L163.116 104.717L163.107 113.86H161.881L161.877 102.695Z" fill="#9E9C9C"/>
<path d="M184.218 109.749L181.672 104.082L179.135 109.766L184.218 109.749ZM181.114 102.615H182.293L187.385 113.86H186.028L184.7 110.908L178.644 110.916L177.308 113.86H176.022L181.114 102.615Z" fill="#9E9C9C"/>
<path d="M192.067 102.695H193.328L193.322 112.701L199.624 112.71L199.615 113.86H192.067V102.695Z" fill="#9E9C9C"/>
<path d="M16.0661 84.7158H10.6296V81.2617H25.4328V84.7158H19.9966V98.2895H16.0661V84.7158Z" fill="#9E9C9C"/>
<path d="M41.7677 89.8243V89.7756C41.7677 86.8563 39.5216 84.4236 36.3566 84.4236C33.1919 84.4236 30.9968 86.8075 30.9968 89.7269V89.7756C30.9968 92.6944 33.2429 95.1271 36.4079 95.1271C39.5726 95.1271 41.7677 92.7431 41.7677 89.8243ZM26.8876 89.8243V89.7756C26.8876 84.9346 30.8947 80.9699 36.4079 80.9699C41.9208 80.9699 45.8769 84.8864 45.8769 89.7269V89.7756C45.8769 94.6161 41.8698 98.5813 36.3566 98.5813C30.8437 98.5813 26.8876 94.6648 26.8876 89.8243Z" fill="#9E9C9C"/>
<path d="M58.485 91.1619L56.1113 85.6404L53.7379 91.1619H58.485ZM54.3504 81.1399H57.9745L65.6315 98.2895H61.5224L59.8886 94.4705H52.334L50.7005 98.2895H46.6935L54.3504 81.1399Z" fill="#9E9C9C"/>
<path d="M66.9074 95.8081L69.2303 93.1567C70.838 94.4218 72.5226 95.2246 74.5644 95.2246C76.1722 95.2246 77.1422 94.6161 77.1422 93.619V93.5703C77.1422 92.6219 76.5294 92.1352 73.5435 91.405C69.9448 90.5297 67.622 89.5807 67.622 86.1996V86.1509C67.622 83.0616 70.2252 81.0181 73.8753 81.0181C76.4786 81.0181 78.6991 81.7965 80.5114 83.1834L78.4695 86.0048C76.8873 84.9589 75.3304 84.3267 73.8245 84.3267C72.3185 84.3267 71.5271 84.9833 71.5271 85.8104V85.8592C71.5271 86.9781 72.2931 87.3429 75.3813 88.097C79.0055 88.9972 81.0473 90.2379 81.0473 93.2054V93.2542C81.0473 96.6353 78.3418 98.5326 74.4881 98.5326C71.7826 98.5326 69.0516 97.6324 66.9074 95.8081Z" fill="#9E9C9C"/>
<path d="M88.2453 84.7158H82.8088V81.2617H97.6118V84.7158H92.1758V98.2895H88.2453V84.7158Z" fill="#9E9C9C"/>
<path d="M100.624 81.2617H104.861L109.557 88.4618L114.253 81.2617H118.49V98.2895H114.585V87.1729L109.557 94.4461H109.455L104.477 87.2454V98.2895H100.624V81.2617Z" fill="#9E9C9C"/>
<path d="M133.038 91.1619L130.664 85.6404L128.29 91.1619H133.038ZM128.903 81.1399H132.527L140.184 98.2895H136.074L134.441 94.4705H126.886L125.253 98.2895H121.246L128.903 81.1399Z" fill="#9E9C9C"/>
<path d="M141.46 95.8081L143.783 93.1567C145.391 94.4218 147.075 95.2246 149.117 95.2246C150.725 95.2246 151.695 94.6161 151.695 93.619V93.5703C151.695 92.6219 151.083 92.1352 148.097 91.405C144.498 90.5297 142.175 89.5807 142.175 86.1996V86.1509C142.175 83.0616 144.779 81.0181 148.428 81.0181C151.032 81.0181 153.252 81.7965 155.064 83.1834L153.023 86.0048C151.44 84.9589 149.884 84.3267 148.377 84.3267C146.871 84.3267 146.08 84.9833 146.08 85.8104V85.8592C146.08 86.9781 146.846 87.3429 149.934 88.097C153.559 88.9972 155.6 90.2379 155.6 93.2054V93.2542C155.6 96.6353 152.894 98.5326 149.041 98.5326C146.335 98.5326 143.604 97.6324 141.46 95.8081Z" fill="#9E9C9C"/>
<path d="M162.798 84.7158H157.361V81.2617H172.165V84.7158H166.729V98.2895H162.798V84.7158Z" fill="#9E9C9C"/>
<path d="M175.176 81.2617H188.652V84.594H179.082V88.0482H187.504V91.3811H179.082V94.9571H188.78V98.2895H175.176V81.2617Z" fill="#9E9C9C"/>
<path d="M200.189 89.5325C202.103 89.5325 203.2 88.5592 203.2 87.1242V87.0755C203.2 85.4699 202.027 84.6428 200.112 84.6428H196.208V89.5325H200.189ZM192.277 81.2617H200.444C202.716 81.2617 204.476 81.8696 205.651 82.9885C206.646 83.9374 207.182 85.275 207.182 86.8806V86.9293C207.182 89.6781 205.626 91.405 203.354 92.2077L207.718 98.2895H203.124L199.296 92.8405H196.208V98.2895H192.277V81.2617Z" fill="#9E9C9C"/>
<path d="M209.505 95.8081L211.828 93.1567C213.435 94.4218 215.12 95.2246 217.162 95.2246C218.77 95.2246 219.74 94.6161 219.74 93.619V93.5703C219.74 92.6219 219.127 92.1352 216.14 91.405C212.543 90.5297 210.22 89.5807 210.22 86.1996V86.1509C210.22 83.0616 212.823 81.0181 216.473 81.0181C219.076 81.0181 221.297 81.7965 223.109 83.1834L221.067 86.0048C219.485 84.9589 217.927 84.3267 216.422 84.3267C214.916 84.3267 214.124 84.9833 214.124 85.8104V85.8592C214.124 86.9781 214.89 87.3429 217.978 88.097C221.602 88.9972 223.645 90.2379 223.645 93.2054V93.2542C223.645 96.6353 220.939 98.5326 217.085 98.5326C214.38 98.5326 211.649 97.6324 209.505 95.8081Z" fill="#9E9C9C"/>
<defs>
<linearGradient id="paint0_linear_18_4" x1="-38.7603" y1="97.4997" x2="144.578" y2="97.4997" gradientUnits="userSpaceOnUse">
<stop stop-color="white"/>
<stop offset="1" stop-color="#515151"/>
</linearGradient>
</defs>
</svg>
