<svg width="579" height="481" viewBox="0 0 579 481" fill="none" xmlns="http://www.w3.org/2000/svg">
<path d="M578.992 176.097H520.636C492.597 74.5747 399.629 1.84559e-05 289.176 1.84559e-05C178.743 1.84559e-05 85.7807 74.5747 57.7432 176.097H0V305.497H58.1104C86.5765 406.361 179.211 480.305 289.176 480.305C399.156 480.305 491.797 406.361 520.267 305.497H578.992V176.097Z" fill="#515151"/>
<mask id="mask0_18_4" style="mask-type:luminance" maskUnits="userSpaceOnUse" x="63" y="14" width="452" height="452">
<path d="M514.98 240.152C514.98 364.853 413.884 465.939 289.176 465.939C164.488 465.939 63.3995 364.853 63.3995 240.152C63.3995 115.449 164.488 14.3653 289.176 14.3653C413.884 14.3653 514.98 115.449 514.98 240.152Z" fill="white"/>
</mask>
<g mask="url(#mask0_18_4)">
<path d="M514.98 240.152C514.98 364.853 413.884 465.939 289.176 465.939C164.488 465.939 63.3995 364.853 63.3995 240.152C63.3995 115.449 164.488 14.3653 289.176 14.3653C413.884 14.3653 514.98 115.449 514.98 240.152Z" fill="url(#paint0_linear_18_4)"/>
</g>
<path d="M99.7328 350.624C94.25 341.116 89.4973 331.169 85.4943 320.967C90.9521 325.623 96.7464 329.652 102.653 333.411C114.286 340.683 126.422 346.849 138.768 352.457C138.895 352.921 139.013 353.387 139.145 353.86C146.224 378.311 157.523 401.305 173.325 419.905C178.217 425.67 183.563 430.988 189.3 435.731C167.2 424.549 147.524 409.905 130.794 392.64C118.844 379.892 108.401 365.763 99.7328 350.624ZM445.735 378.111C443.529 374.345 440.635 371.052 437.541 368.025C431.297 361.994 424.232 356.919 416.981 352.235C414.512 350.675 412.003 349.143 409.491 347.636C415.649 336.108 421.069 324.119 425.753 311.836C433.888 312.28 441.997 312.513 450.137 312.46C459.935 312.352 469.773 311.829 479.44 310.097C484.264 309.188 489.075 308.007 493.577 305.992C495.809 304.972 497.985 303.761 499.861 302.135C500.269 301.765 500.673 301.379 501.057 300.968C490.609 336.509 471.889 367.535 447.563 392.504C447.839 391.904 448.083 391.292 448.247 390.637C449.413 386.316 447.92 381.793 445.735 378.111ZM302.243 452.573C324.825 443.811 345.4 429.052 363.191 411.268C364.179 410.284 365.101 409.268 366.068 408.273C378.057 408.996 390.096 409.196 402.085 408.581C410.711 408.093 419.372 407.17 427.772 405.009C431.712 403.964 435.62 402.611 439.228 400.636C396.349 440.253 338.511 462.251 278.368 459.308C286.456 457.861 294.455 455.589 302.243 452.573ZM247.929 455.682C251.397 454.455 254.784 452.655 258.021 450.465C265.763 445.143 272.708 437.927 279.071 430.069C286.488 420.832 293.131 410.67 299.261 400.077C316.172 403.051 333.193 405.424 350.279 407.037C354.648 407.453 359.004 407.807 363.369 408.105C362.711 408.767 362.067 409.451 361.395 410.105C343.557 427.584 322.915 441.649 300.683 449.809C289.585 453.889 278.12 456.413 266.668 457.1C263.513 457.307 260.353 457.332 257.208 457.24C254.113 456.789 251.023 456.262 247.929 455.682ZM136.66 277.068C148.003 277.149 159.391 277.837 170.731 278.917C183.805 280.156 196.845 281.827 209.843 283.892C206.199 305.552 203.701 327.305 202.665 348.972C202.343 355.853 202.233 362.699 202.304 369.528C185.276 363.551 168.492 356.919 152.084 349.54C149.345 348.305 146.625 347.052 143.919 345.764C138.451 323.647 136.2 300.391 136.66 277.068ZM79.7765 301.328C77.876 298.08 76.9891 294.737 77.7391 292.109C78.3937 289.489 80.8063 286.999 84.0645 285.131C87.3016 283.251 91.1292 281.903 95.0677 280.859C102.987 278.8 111.395 277.895 119.796 277.415C122.965 277.244 126.134 277.149 129.305 277.115C129.299 277.121 129.305 277.132 129.299 277.149C129.015 299.113 131.207 320.999 136.1 341.988C126.11 337.017 116.357 331.652 107.053 325.68C99.976 321.109 93.114 316.171 87.2412 310.476C84.3401 307.628 81.6667 304.549 79.7765 301.328ZM500.255 174.271C498.039 170.505 495.123 167.216 492.013 164.183C485.747 158.137 478.632 153.059 471.333 148.356C461.341 141.988 450.927 136.313 440.305 131.093C439.807 129.099 439.324 127.095 438.788 125.113C434.031 107.895 427.296 91.32 418.327 76.4227C419.597 75.912 420.84 75.3094 421.999 74.5187C423.789 73.336 425.499 71.5907 426.096 69.288C426.459 67.9507 426.361 66.5974 426.065 65.312C461.528 93.424 487.472 131.815 500.52 174.745C500.441 174.591 500.345 174.427 500.255 174.271ZM503.393 288.739C502.571 286.397 501.283 284.264 499.84 282.275C496.909 278.303 493.323 274.895 489.58 271.735C482.025 265.432 473.728 260.129 465.268 255.187C458.267 251.139 451.117 247.36 443.888 243.761C445.917 230.896 447.151 217.941 447.571 204.996C450.529 204.94 453.489 204.861 456.453 204.708C465.117 204.232 473.813 203.316 482.239 201.163C486.44 200.06 490.607 198.636 494.4 196.465C498.137 194.325 501.657 191.14 502.775 186.808C503.019 185.935 503.121 185.049 503.153 184.165C511.817 217.981 512.587 254.277 503.876 290.381C503.755 289.827 503.587 289.275 503.393 288.739ZM436.755 277.643C439.693 266.607 442.04 255.425 443.819 244.156C450.58 247.437 457.257 250.903 463.801 254.624C472.24 259.491 480.531 264.731 488.073 270.965C491.808 274.093 495.403 277.479 498.323 281.416C499.772 283.399 501.057 285.517 501.88 287.833C502.717 290.139 503.032 292.703 502.399 295.116C501.765 297.528 500.219 299.589 498.365 301.189C496.497 302.804 494.336 304.005 492.088 305.016C487.607 306.991 482.811 308.157 478.009 309.029C468.373 310.727 458.589 311.199 448.833 311.279C441.304 311.279 433.781 310.988 426.272 310.491C430.316 299.74 433.845 288.771 436.755 277.643ZM390.512 306.805C374.607 304.585 358.789 301.787 343.075 298.569C347.651 284.58 351.824 270.443 355.568 256.203C359.336 242.048 362.668 227.771 365.575 213.447C380.835 218.408 395.952 223.791 410.887 229.699C421.533 234.019 432.113 238.564 442.484 243.523C440.731 254.889 438.405 266.177 435.484 277.313C432.515 288.517 428.915 299.561 424.799 310.383C413.331 309.588 401.896 308.307 390.512 306.805ZM371.164 327.991C360.177 323.045 349.027 318.472 337.752 314.163C339.255 309.94 340.723 305.701 342.147 301.428C358.513 304.363 374.944 306.855 391.457 308.803C402.359 310.097 413.309 311.107 424.268 311.757C419.631 323.805 414.261 335.557 408.195 346.88C396.245 339.845 383.805 333.66 371.164 327.991ZM218.24 271.059C237.285 277.025 256.499 282.367 275.816 287.213C297.357 292.585 319.056 297.285 340.891 301.207C339.484 305.395 338.045 309.545 336.549 313.697C315.892 305.853 294.849 299.037 273.568 293.04C254.801 287.821 235.848 283.192 216.703 279.379C217.209 276.605 217.7 273.821 218.24 271.059ZM202.549 152.944C214.891 158.113 227.4 162.799 240.02 167.104C239.059 169.864 238.111 172.636 237.171 175.405C220.227 171.861 203.173 168.796 185.991 166.391C177.321 165.247 168.624 164.225 159.901 163.444C163.317 154.825 167.093 146.373 171.243 138.137C181.475 143.575 191.955 148.413 202.549 152.944ZM223.915 74.7347C242.039 76.4493 260.093 79.0333 278.049 82.2933C274.695 88.0813 271.479 93.9854 268.424 100.011C258.545 119.484 249.932 139.792 242.371 160.569C229.829 155.883 217.444 150.829 205.257 145.347C195.055 140.776 184.984 135.869 175.249 130.472C175.303 130.371 175.353 130.265 175.403 130.172C186.517 109.676 199.92 90.5507 215.565 74.008C218.352 74.2307 221.137 74.4653 223.915 74.7347ZM257.765 39.6907C259.82 41.4907 261.955 43.116 264.147 44.6293C271.041 49.3253 278.347 53.0374 285.761 56.4027C288.067 57.4187 290.392 58.384 292.712 59.3187C289.711 63.54 286.813 67.8933 284.028 72.3333C282.956 74.0347 281.923 75.7547 280.879 77.4854C262.424 73.4987 243.805 70.2213 224.988 67.964C223.931 67.8493 222.865 67.744 221.807 67.6253C232.84 56.8533 244.885 47.3067 257.765 39.6907ZM377.477 37.6054C387.097 43.86 395.816 51.7214 403.461 60.74C407.688 65.7307 411.584 71.076 415.141 76.68C411.308 77.82 407.397 78.3853 403.5 78.724C395.387 79.3813 387.312 78.988 379.309 78.248C378.305 78.1494 377.309 78.0213 376.307 77.9C375.931 74.312 375.495 70.7427 374.925 67.216C373.284 57.244 370.813 47.524 366.692 39.0933C364.967 35.5893 362.916 32.3614 360.521 29.5867C363.431 30.5814 366.305 31.6213 369.153 32.728C371.995 34.2333 374.772 35.8467 377.477 37.6054ZM425.309 124.063C409.716 117.053 393.805 110.74 377.699 104.999C377.671 96.312 377.292 87.708 376.455 79.248C377.513 79.3427 378.587 79.444 379.668 79.524C387.756 80.1173 395.903 80.2627 404.047 79.5094C407.927 79.1334 411.8 78.5307 415.596 77.38C424.733 91.8747 431.741 108.156 436.633 125.239C437.095 126.784 437.473 128.351 437.883 129.905C433.716 127.897 429.528 125.953 425.309 124.063ZM368.416 198.585C380.376 200.425 392.38 201.959 404.427 203.101C418.255 204.436 432.152 205.207 446.052 205.025C445.673 217.735 444.492 230.451 442.552 243.092C432.653 238.204 422.585 233.673 412.432 229.395C397.143 222.935 381.637 216.987 365.985 211.46C366.837 207.173 367.643 202.883 368.416 198.585ZM331.832 71.7587C345.611 75.132 359.601 77.6733 373.752 79.024C374.508 85.2987 375.001 91.6854 375.288 98.1374C375.365 100.152 375.417 102.184 375.467 104.211C359.569 98.6054 343.472 93.5547 327.241 88.988C313.587 85.184 299.823 81.6987 285.951 78.5947C289.493 72.5413 293.201 66.6773 297.113 61.06C308.471 65.38 320.08 68.8493 331.832 71.7587ZM304.569 51.0094C310.703 43.368 317.369 36.412 324.603 31.4094C328.207 28.936 331.955 26.9773 335.741 25.8907C339.503 24.7813 343.313 24.612 346.828 25.4627C354.036 27.1587 359.765 33.3027 363.767 41.1134C367.797 48.9654 370.38 58.2974 372.144 67.9747C372.717 71.1387 373.187 74.3467 373.587 77.5867C359.555 75.8027 345.74 72.732 332.18 68.924C321.096 65.784 310.148 62.0774 299.501 57.688C301.155 55.412 302.836 53.1774 304.569 51.0094ZM327.675 21.108C329.636 21.464 331.615 21.8414 333.58 22.2454C330.204 23.3867 326.901 25.0574 323.727 27.1054C315.828 32.232 308.685 39.356 302.145 47.1094C299.773 49.9334 297.489 52.888 295.267 55.8933C292.561 54.724 289.864 53.516 287.211 52.2507C279.984 48.8267 272.92 44.9987 266.357 40.4414C264.9 39.4187 263.465 38.3453 262.089 37.2307C267.589 34.196 273.241 31.5187 279.023 29.2707C289.936 24.996 301.268 22.2174 312.649 21.2747C317.66 20.852 322.671 20.8107 327.675 21.108ZM283.265 83.256C297.389 85.9333 311.432 89.004 325.383 92.4467C342.233 96.6614 358.968 101.337 375.517 106.659C375.632 114.185 375.509 121.787 375.123 129.429C374.056 151.336 371.451 173.388 367.679 195.36C345.647 191.297 323.823 186.056 302.251 180.057C283.935 174.908 265.803 169.112 247.948 162.605C248.056 162.316 248.156 162.012 248.268 161.715C255.48 141.703 263.492 122.037 272.747 103.269C276.103 96.4933 279.599 89.7933 283.265 83.256ZM301.229 191.047C281.999 185.716 262.619 180.855 243.093 176.639C243.949 174.081 244.852 171.54 245.743 168.997C264.236 175.116 282.973 180.441 301.841 185.161C323.429 190.487 345.211 194.983 367.156 198.404C366.412 202.621 365.617 206.833 364.795 211.043C343.844 203.663 322.621 197.025 301.229 191.047ZM229.344 222.867C232.975 209.056 237.017 195.376 241.419 181.843C260.872 185.476 280.228 189.744 299.451 194.528C321.275 200.011 342.971 206.121 364.389 213.064C361.524 227.433 358.197 241.739 354.501 255.913C350.687 270.149 346.488 284.321 341.853 298.315C319.801 293.777 297.933 288.373 276.251 282.381C257.175 277.057 238.241 271.195 219.525 264.763C222.392 250.709 225.655 236.729 229.344 222.867ZM446.193 200.596C446.171 201.556 446.121 202.511 446.103 203.468C431.812 203.544 417.555 202.435 403.389 200.84C391.851 199.457 380.391 197.668 368.964 195.592C369.107 194.78 369.271 193.972 369.408 193.169C373.047 172.019 375.792 150.741 377.005 129.575C377.403 122.168 377.664 114.747 377.685 107.373C393.196 112.412 408.535 118.003 423.603 124.313C428.463 126.396 433.308 128.551 438.104 130.793C443.927 153.208 446.536 176.844 446.193 200.596ZM447.695 200.916C448.153 177.537 445.941 154.195 440.513 131.913C450.516 136.647 460.311 141.812 469.712 147.691C476.988 152.311 484.072 157.32 490.339 163.293C493.44 166.292 496.359 169.544 498.587 173.276C500.788 176.941 502.295 181.411 501.164 185.735C500.012 190.043 496.497 193.181 492.775 195.287C488.988 197.441 484.844 198.819 480.679 199.891C472.272 201.992 463.639 202.855 455.032 203.277C452.556 203.389 450.085 203.439 447.632 203.464C447.648 202.611 447.695 201.764 447.695 200.916ZM425.292 64.704C425.653 66.0267 425.785 67.4347 425.42 68.8333C424.812 71.0987 423.108 72.808 421.327 73.964C420.231 74.6827 419.079 75.24 417.897 75.7214C414.348 69.896 410.453 64.324 406.181 59.0933C400.927 52.6387 395.115 46.728 388.815 41.4854C401.847 48.0747 414.036 55.8747 425.292 64.704ZM257.252 32.7653C255.924 31.32 254.719 29.7574 253.876 28.088C253.024 26.4267 252.66 24.684 253.052 23.3C253.309 22.2667 254.028 21.256 255.035 20.3867C269.596 18.0907 284.495 17.244 299.551 17.9547C292.251 19.2574 285.013 21.2347 277.935 23.8094C270.971 26.3574 264.157 29.4694 257.539 33.052C257.451 32.9587 257.34 32.864 257.252 32.7653ZM147.493 201.231C150.219 190.852 153.473 180.621 157.183 170.571C166.395 171.193 175.605 172.081 184.781 173.176C201.719 175.153 218.591 177.728 235.396 180.752C231.013 194.143 227.023 207.665 223.391 221.273C219.801 234.996 216.571 248.841 213.769 262.741C197.645 257.057 181.695 250.967 165.987 244.309C157.475 240.725 149.037 236.952 140.729 232.956C142.465 222.287 144.712 211.687 147.493 201.231ZM77.5973 182.768C77.6979 182.352 77.8208 181.955 77.9265 181.541C79.1203 179.292 81.9421 177.193 85.2792 175.733C89.2588 173.939 93.7969 172.78 98.3812 171.928C107.635 170.237 117.263 169.709 126.872 169.599C134.337 169.541 141.827 169.723 149.321 170.1C145.819 179.684 142.74 189.423 140.124 199.288C137.513 209.251 135.365 219.335 133.673 229.488C126.956 226.115 120.347 222.573 113.871 218.819C105.568 213.967 97.4604 208.752 90.2505 202.716C86.6792 199.712 83.3073 196.465 80.7323 192.933C78.5599 190.025 77.1412 186.82 77.2073 184.275C77.3401 183.769 77.4557 183.268 77.5973 182.768ZM136.921 269.595C137.328 260.215 138.184 250.835 139.448 241.489C147.375 245.104 155.387 248.483 163.439 251.74C179.603 258.139 195.972 263.912 212.48 269.208C211.908 272.211 211.357 275.209 210.825 278.216C197.9 275.764 184.884 273.713 171.781 272.147C160.223 270.855 148.611 269.884 136.921 269.595ZM248.657 384.137C234.747 380.215 220.936 375.92 207.265 371.247C207.295 363.627 207.571 355.935 208.017 348.269C209.241 327.383 211.972 306.317 215.597 285.353C215.632 285.188 215.667 285.028 215.691 284.859C234.516 288.023 253.239 291.945 271.785 296.527C293.411 301.925 314.861 308.121 335.933 315.44C328.383 336.288 319.807 356.623 309.972 376.084C306.479 383.049 302.757 389.843 298.861 396.448C281.985 392.919 265.244 388.764 248.657 384.137ZM234.057 452.536C226.912 450.582 221.408 444.262 217.617 436.375C213.792 428.451 211.428 419.113 209.869 409.44C208.268 399.251 207.516 388.66 207.327 377.92C220.844 382.04 234.469 385.794 248.164 389.227C264.305 393.201 280.568 396.705 296.924 399.663C296.172 400.897 295.428 402.145 294.663 403.363C289.197 412.105 283.371 420.47 277.036 428.049C270.72 435.601 263.868 442.448 256.481 447.268C252.796 449.674 248.985 451.528 245.163 452.479C241.365 453.481 237.525 453.525 234.057 452.536ZM406.917 349.301C395.421 370.248 381.357 389.624 365.101 406.333C359.856 405.904 354.601 405.403 349.391 404.803C333.164 402.876 317.077 400.156 301.104 396.892C304.784 390.351 308.299 383.653 311.665 376.872C321.068 357.882 329.192 338.027 336.468 317.835C336.707 317.18 336.928 316.528 337.161 315.88C348.081 319.705 358.911 323.793 369.596 328.281C382.707 333.912 395.669 340.003 408.041 347.145C407.669 347.858 407.305 348.581 406.917 349.301ZM409.365 347.905C411.419 349.106 413.473 350.324 415.492 351.612C422.744 356.215 429.795 361.215 436.028 367.177C439.12 370.18 442.024 373.425 444.232 377.157C446.415 380.808 447.92 385.287 446.793 389.605C445.64 393.915 442.124 397.068 438.433 399.157C434.653 401.319 430.524 402.704 426.361 403.792C417.997 405.893 409.387 406.755 400.812 407.193C389.775 407.687 378.745 407.343 367.736 406.533C383.601 389.756 397.155 370.437 408.392 349.765C408.713 349.153 409.028 348.528 409.365 347.905ZM228.433 26.28C235.38 24.2814 242.433 22.6174 249.585 21.3134C249.417 21.712 249.268 22.1294 249.155 22.552C248.749 24.1027 248.763 25.7174 249.024 27.1054C249.291 28.504 249.771 29.736 250.327 30.844C251.215 32.5707 252.283 34.032 253.421 35.3653C239.839 43.2373 227.125 53.1294 215.584 64.3867C214.796 65.1614 214.033 65.9827 213.247 66.7747C199.751 65.5534 186.151 64.9 172.46 65.4867C165.369 65.8347 158.244 66.464 151.115 67.8454C160.116 60.4107 169.675 53.6694 179.753 47.7454C195.045 38.7294 211.424 31.492 228.433 26.28ZM136.299 81.2293C136.497 81.1027 136.699 80.9747 136.911 80.86C140.153 78.9707 144.001 77.632 147.953 76.5947C155.905 74.548 164.337 73.6414 172.78 73.18C184.08 72.5947 195.477 72.768 206.88 73.4267C192.347 89.208 179.685 107.075 169.152 126.233C169.055 126.432 168.959 126.62 168.847 126.824C165.875 125.076 162.929 123.288 160.028 121.441C152.924 116.865 146.029 111.904 140.125 106.208C137.211 103.347 134.525 100.287 132.633 97.048C130.708 93.8054 129.813 90.4627 130.566 87.8374C130.661 87.4467 130.812 87.0627 130.977 86.6814C132.731 84.84 134.496 83.0173 136.299 81.2293ZM122.565 96.1027C123.223 98.284 124.168 100.26 125.232 102.06C127.782 106.332 130.941 109.797 134.239 112.979C140.871 119.295 148.171 124.424 155.644 129.167C158.647 131.045 161.691 132.832 164.765 134.561C160.083 143.747 155.861 153.179 152.084 162.804C143.716 162.203 135.333 161.835 126.898 161.845C116.958 161.897 106.958 162.353 96.8896 164.112C91.8984 165.02 86.8755 166.213 81.8989 168.385C89.5151 145.697 100.774 124.245 115.272 105.196C117.617 102.099 120.055 99.0747 122.565 96.1027ZM72.0412 268.832C68.9079 245.533 69.6093 221.768 73.9683 198.688C77.2251 202.999 80.9688 206.504 84.8432 209.74C92.7219 216.237 101.197 221.569 109.811 226.537C117.193 230.727 124.716 234.567 132.331 238.187C130.872 248.589 129.949 259.051 129.532 269.52C126.192 269.52 122.835 269.567 119.474 269.72C110.675 270.168 101.832 271.036 92.974 273.256C88.5593 274.409 84.1177 275.864 79.8115 278.32C77.8995 279.419 76.0177 280.757 74.2869 282.451C73.4084 277.923 72.6427 273.392 72.0412 268.832ZM202.216 439.292C192.788 432.845 184.311 424.844 176.919 415.732C163.083 398.696 153.179 377.968 146.639 355.957C147.541 356.336 148.435 356.737 149.336 357.124C166.745 364.424 184.499 370.767 202.444 376.389C202.493 377.845 202.513 379.292 202.583 380.733C203.051 391.223 204.04 401.613 205.883 411.601C207.735 421.586 210.428 431.307 214.756 439.66C216.513 443.024 218.572 446.109 220.949 448.779C218.955 448.139 216.975 447.463 215.017 446.756C210.6 444.577 206.319 442.108 202.216 439.292ZM347.731 16.724C225.365 -15.6027 99.5131 57.644 67.188 180.017C34.8651 302.388 108.12 428.24 230.488 460.557C352.859 492.886 478.709 419.629 511.028 297.263C543.352 174.889 470.099 49.04 347.731 16.724Z" fill="#212121"/>
<path d="M99.7328 350.624C94.25 341.116 89.4973 331.169 85.4943 320.967C90.9521 325.623 96.7464 329.652 102.653 333.411C114.286 340.683 126.422 346.849 138.768 352.457C138.895 352.921 139.013 353.387 139.145 353.86C146.224 378.311 157.523 401.305 173.325 419.905C178.217 425.67 183.563 430.988 189.3 435.731C167.2 424.549 147.524 409.905 130.794 392.64C118.844 379.892 108.401 365.763 99.7328 350.624ZM445.735 378.111C443.529 374.345 440.635 371.052 437.541 368.025C431.297 361.994 424.232 356.919 416.981 352.235C414.512 350.675 412.003 349.143 409.491 347.636C415.649 336.108 421.069 324.119 425.753 311.836C433.888 312.28 441.997 312.513 450.137 312.46C459.935 312.352 469.773 311.829 479.44 310.097C484.264 309.188 489.075 308.007 493.577 305.992C495.809 304.972 497.985 303.761 499.861 302.135C500.269 301.765 500.673 301.379 501.057 300.968C490.609 336.509 471.889 367.535 447.563 392.504C447.839 391.904 448.083 391.292 448.247 390.637C449.413 386.316 447.92 381.793 445.735 378.111ZM302.243 452.573C324.825 443.811 345.4 429.052 363.191 411.268C364.179 410.284 365.101 409.268 366.068 408.273C378.057 408.996 390.096 409.196 402.085 408.581C410.711 408.093 419.372 407.17 427.772 405.009C431.712 403.964 435.62 402.611 439.228 400.636C396.349 440.253 338.511 462.251 278.368 459.308C286.456 457.861 294.455 455.589 302.243 452.573ZM247.929 455.682C251.397 454.455 254.784 452.655 258.021 450.465C265.763 445.143 272.708 437.927 279.071 430.069C286.488 420.832 293.131 410.67 299.261 400.077C316.172 403.051 333.193 405.424 350.279 407.037C354.648 407.453 359.004 407.807 363.369 408.105C362.711 408.767 362.067 409.451 361.395 410.105C343.557 427.584 322.915 441.649 300.683 449.809C289.585 453.889 278.12 456.413 266.668 457.1C263.513 457.307 260.353 457.332 257.208 457.24C254.113 456.789 251.023 456.262 247.929 455.682ZM136.66 277.068C148.003 277.149 159.391 277.837 170.731 278.917C183.805 280.156 196.845 281.827 209.843 283.892C206.199 305.552 203.701 327.305 202.665 348.972C202.343 355.853 202.233 362.699 202.304 369.528C185.276 363.551 168.492 356.919 152.084 349.54C149.345 348.305 146.625 347.052 143.919 345.764C138.451 323.647 136.2 300.391 136.66 277.068ZM79.7765 301.328C77.876 298.08 76.9891 294.737 77.7391 292.109C78.3937 289.489 80.8063 286.999 84.0645 285.131C87.3016 283.251 91.1292 281.903 95.0677 280.859C102.987 278.8 111.395 277.895 119.796 277.415C122.965 277.244 126.134 277.149 129.305 277.115C129.299 277.121 129.305 277.132 129.299 277.149C129.015 299.113 131.207 320.999 136.1 341.988C126.11 337.017 116.357 331.652 107.053 325.68C99.976 321.109 93.114 316.171 87.2412 310.476C84.3401 307.628 81.6667 304.549 79.7765 301.328ZM500.255 174.271C498.039 170.505 495.123 167.216 492.013 164.183C485.747 158.137 478.632 153.059 471.333 148.356C461.341 141.988 450.927 136.313 440.305 131.093C439.807 129.099 439.324 127.095 438.788 125.113C434.031 107.895 427.296 91.32 418.327 76.4227C419.597 75.912 420.84 75.3094 421.999 74.5187C423.789 73.336 425.499 71.5907 426.096 69.288C426.459 67.9507 426.361 66.5974 426.065 65.312C461.528 93.424 487.472 131.815 500.52 174.745C500.441 174.591 500.345 174.427 500.255 174.271ZM503.393 288.739C502.571 286.397 501.283 284.264 499.84 282.275C496.909 278.303 493.323 274.895 489.58 271.735C482.025 265.432 473.728 260.129 465.268 255.187C458.267 251.139 451.117 247.36 443.888 243.761C445.917 230.896 447.151 217.941 447.571 204.996C450.529 204.94 453.489 204.861 456.453 204.708C465.117 204.232 473.813 203.316 482.239 201.163C486.44 200.06 490.607 198.636 494.4 196.465C498.137 194.325 501.657 191.14 502.775 186.808C503.019 185.935 503.121 185.049 503.153 184.165C511.817 217.981 512.587 254.277 503.876 290.381C503.755 289.827 503.587 289.275 503.393 288.739ZM436.755 277.643C439.693 266.607 442.04 255.425 443.819 244.156C450.58 247.437 457.257 250.903 463.801 254.624C472.24 259.491 480.531 264.731 488.073 270.965C491.808 274.093 495.403 277.479 498.323 281.416C499.772 283.399 501.057 285.517 501.88 287.833C502.717 290.139 503.032 292.703 502.399 295.116C501.765 297.528 500.219 299.589 498.365 301.189C496.497 302.804 494.336 304.005 492.088 305.016C487.607 306.991 482.811 308.157 478.009 309.029C468.373 310.727 458.589 311.199 448.833 311.279C441.304 311.279 433.781 310.988 426.272 310.491C430.316 299.74 433.845 288.771 436.755 277.643ZM390.512 306.805C374.607 304.585 358.789 301.787 343.075 298.569C347.651 284.58 351.824 270.443 355.568 256.203C359.336 242.048 362.668 227.771 365.575 213.447C380.835 218.408 395.952 223.791 410.887 229.699C421.533 234.019 432.113 238.564 442.484 243.523C440.731 254.889 438.405 266.177 435.484 277.313C432.515 288.517 428.915 299.561 424.799 310.383C413.331 309.588 401.896 308.307 390.512 306.805ZM371.164 327.991C360.177 323.045 349.027 318.472 337.752 314.163C339.255 309.94 340.723 305.701 342.147 301.428C358.513 304.363 374.944 306.855 391.457 308.803C402.359 310.097 413.309 311.107 424.268 311.757C419.631 323.805 414.261 335.557 408.195 346.88C396.245 339.845 383.805 333.66 371.164 327.991ZM218.24 271.059C237.285 277.025 256.499 282.367 275.816 287.213C297.357 292.585 319.056 297.285 340.891 301.207C339.484 305.395 338.045 309.545 336.549 313.697C315.892 305.853 294.849 299.037 273.568 293.04C254.801 287.821 235.848 283.192 216.703 279.379C217.209 276.605 217.7 273.821 218.24 271.059ZM202.549 152.944C214.891 158.113 227.4 162.799 240.02 167.104C239.059 169.864 238.111 172.636 237.171 175.405C220.227 171.861 203.173 168.796 185.991 166.391C177.321 165.247 168.624 164.225 159.901 163.444C163.317 154.825 167.093 146.373 171.243 138.137C181.475 143.575 191.955 148.413 202.549 152.944ZM223.915 74.7347C242.039 76.4493 260.093 79.0333 278.049 82.2933C274.695 88.0813 271.479 93.9854 268.424 100.011C258.545 119.484 249.932 139.792 242.371 160.569C229.829 155.883 217.444 150.829 205.257 145.347C195.055 140.776 184.984 135.869 175.249 130.472C175.303 130.371 175.353 130.265 175.403 130.172C186.517 109.676 199.92 90.5507 215.565 74.008C218.352 74.2307 221.137 74.4653 223.915 74.7347ZM257.765 39.6907C259.82 41.4907 261.955 43.116 264.147 44.6293C271.041 49.3253 278.347 53.0374 285.761 56.4027C288.067 57.4187 290.392 58.384 292.712 59.3187C289.711 63.54 286.813 67.8933 284.028 72.3333C282.956 74.0347 281.923 75.7547 280.879 77.4854C262.424 73.4987 243.805 70.2213 224.988 67.964C223.931 67.8493 222.865 67.744 221.807 67.6253C232.84 56.8533 244.885 47.3067 257.765 39.6907ZM377.477 37.6054C387.097 43.86 395.816 51.7214 403.461 60.74C407.688 65.7307 411.584 71.076 415.141 76.68C411.308 77.82 407.397 78.3853 403.5 78.724C395.387 79.3813 387.312 78.988 379.309 78.248C378.305 78.1494 377.309 78.0213 376.307 77.9C375.931 74.312 375.495 70.7427 374.925 67.216C373.284 57.244 370.813 47.524 366.692 39.0933C364.967 35.5893 362.916 32.3614 360.521 29.5867C363.431 30.5814 366.305 31.6213 369.153 32.728C371.995 34.2333 374.772 35.8467 377.477 37.6054ZM425.309 124.063C409.716 117.053 393.805 110.74 377.699 104.999C377.671 96.312 377.292 87.708 376.455 79.248C377.513 79.3427 378.587 79.444 379.668 79.524C387.756 80.1173 395.903 80.2627 404.047 79.5094C407.927 79.1334 411.8 78.5307 415.596 77.38C424.733 91.8747 431.741 108.156 436.633 125.239C437.095 126.784 437.473 128.351 437.883 129.905C433.716 127.897 429.528 125.953 425.309 124.063ZM368.416 198.585C380.376 200.425 392.38 201.959 404.427 203.101C418.255 204.436 432.152 205.207 446.052 205.025C445.673 217.735 444.492 230.451 442.552 243.092C432.653 238.204 422.585 233.673 412.432 229.395C397.143 222.935 381.637 216.987 365.985 211.46C366.837 207.173 367.643 202.883 368.416 198.585ZM331.832 71.7587C345.611 75.132 359.601 77.6733 373.752 79.024C374.508 85.2987 375.001 91.6854 375.288 98.1374C375.365 100.152 375.417 102.184 375.467 104.211C359.569 98.6054 343.472 93.5547 327.241 88.988C313.587 85.184 299.823 81.6987 285.951 78.5947C289.493 72.5413 293.201 66.6773 297.113 61.06C308.471 65.38 320.08 68.8493 331.832 71.7587ZM304.569 51.0094C310.703 43.368 317.369 36.412 324.603 31.4094C328.207 28.936 331.955 26.9773 335.741 25.8907C339.503 24.7813 343.313 24.612 346.828 25.4627C354.036 27.1587 359.765 33.3027 363.767 41.1134C367.797 48.9654 370.38 58.2974 372.144 67.9747C372.717 71.1387 373.187 74.3467 373.587 77.5867C359.555 75.8027 345.74 72.732 332.18 68.924C321.096 65.784 310.148 62.0774 299.501 57.688C301.155 55.412 302.836 53.1774 304.569 51.0094ZM327.675 21.108C329.636 21.464 331.615 21.8414 333.58 22.2454C330.204 23.3867 326.901 25.0574 323.727 27.1054C315.828 32.232 308.685 39.356 302.145 47.1094C299.773 49.9334 297.489 52.888 295.267 55.8933C292.561 54.724 289.864 53.516 287.211 52.2507C279.984 48.8267 272.92 44.9987 266.357 40.4414C264.9 39.4187 263.465 38.3453 262.089 37.2307C267.589 34.196 273.241 31.5187 279.023 29.2707C289.936 24.996 301.268 22.2174 312.649 21.2747C317.66 20.852 322.671 20.8107 327.675 21.108ZM283.265 83.256C297.389 85.9333 311.432 89.004 325.383 92.4467C342.233 96.6614 358.968 101.337 375.517 106.659C375.632 114.185 375.509 121.787 375.123 129.429C374.056 151.336 371.451 173.388 367.679 195.36C345.647 191.297 323.823 186.056 302.251 180.057C283.935 174.908 265.803 169.112 247.948 162.605C248.056 162.316 248.156 162.012 248.268 161.715C255.48 141.703 263.492 122.037 272.747 103.269C276.103 96.4933 279.599 89.7933 283.265 83.256ZM301.229 191.047C281.999 185.716 262.619 180.855 243.093 176.639C243.949 174.081 244.852 171.54 245.743 168.997C264.236 175.116 282.973 180.441 301.841 185.161C323.429 190.487 345.211 194.983 367.156 198.404C366.412 202.621 365.617 206.833 364.795 211.043C343.844 203.663 322.621 197.025 301.229 191.047ZM229.344 222.867C232.975 209.056 237.017 195.376 241.419 181.843C260.872 185.476 280.228 189.744 299.451 194.528C321.275 200.011 342.971 206.121 364.389 213.064C361.524 227.433 358.197 241.739 354.501 255.913C350.687 270.149 346.488 284.321 341.853 298.315C319.801 293.777 297.933 288.373 276.251 282.381C257.175 277.057 238.241 271.195 219.525 264.763C222.392 250.709 225.655 236.729 229.344 222.867ZM446.193 200.596C446.171 201.556 446.121 202.511 446.103 203.468C431.812 203.544 417.555 202.435 403.389 200.84C391.851 199.457 380.391 197.668 368.964 195.592C369.107 194.78 369.271 193.972 369.408 193.169C373.047 172.019 375.792 150.741 377.005 129.575C377.403 122.168 377.664 114.747 377.685 107.373C393.196 112.412 408.535 118.003 423.603 124.313C428.463 126.396 433.308 128.551 438.104 130.793C443.927 153.208 446.536 176.844 446.193 200.596ZM447.695 200.916C448.153 177.537 445.941 154.195 440.513 131.913C450.516 136.647 460.311 141.812 469.712 147.691C476.988 152.311 484.072 157.32 490.339 163.293C493.44 166.292 496.359 169.544 498.587 173.276C500.788 176.941 502.295 181.411 501.164 185.735C500.012 190.043 496.497 193.181 492.775 195.287C488.988 197.441 484.844 198.819 480.679 199.891C472.272 201.992 463.639 202.855 455.032 203.277C452.556 203.389 450.085 203.439 447.632 203.464C447.648 202.611 447.695 201.764 447.695 200.916ZM425.292 64.704C425.653 66.0267 425.785 67.4347 425.42 68.8333C424.812 71.0987 423.108 72.808 421.327 73.964C420.231 74.6827 419.079 75.24 417.897 75.7214C414.348 69.896 410.453 64.324 406.181 59.0933C400.927 52.6387 395.115 46.728 388.815 41.4854C401.847 48.0747 414.036 55.8747 425.292 64.704ZM257.252 32.7653C255.924 31.32 254.719 29.7574 253.876 28.088C253.024 26.4267 252.66 24.684 253.052 23.3C253.309 22.2667 254.028 21.256 255.035 20.3867C269.596 18.0907 284.495 17.244 299.551 17.9547C292.251 19.2574 285.013 21.2347 277.935 23.8094C270.971 26.3574 264.157 29.4694 257.539 33.052C257.451 32.9587 257.34 32.864 257.252 32.7653ZM147.493 201.231C150.219 190.852 153.473 180.621 157.183 170.571C166.395 171.193 175.605 172.081 184.781 173.176C201.719 175.153 218.591 177.728 235.396 180.752C231.013 194.143 227.023 207.665 223.391 221.273C219.801 234.996 216.571 248.841 213.769 262.741C197.645 257.057 181.695 250.967 165.987 244.309C157.475 240.725 149.037 236.952 140.729 232.956C142.465 222.287 144.712 211.687 147.493 201.231ZM77.5973 182.768C77.6979 182.352 77.8208 181.955 77.9265 181.541C79.1203 179.292 81.9421 177.193 85.2792 175.733C89.2588 173.939 93.7969 172.78 98.3812 171.928C107.635 170.237 117.263 169.709 126.872 169.599C134.337 169.541 141.827 169.723 149.321 170.1C145.819 179.684 142.74 189.423 140.124 199.288C137.513 209.251 135.365 219.335 133.673 229.488C126.956 226.115 120.347 222.573 113.871 218.819C105.568 213.967 97.4604 208.752 90.2505 202.716C86.6792 199.712 83.3073 196.465 80.7323 192.933C78.5599 190.025 77.1412 186.82 77.2073 184.275C77.3401 183.769 77.4557 183.268 77.5973 182.768ZM136.921 269.595C137.328 260.215 138.184 250.835 139.448 241.489C147.375 245.104 155.387 248.483 163.439 251.74C179.603 258.139 195.972 263.912 212.48 269.208C211.908 272.211 211.357 275.209 210.825 278.216C197.9 275.764 184.884 273.713 171.781 272.147C160.223 270.855 148.611 269.884 136.921 269.595ZM248.657 384.137C234.747 380.215 220.936 375.92 207.265 371.247C207.295 363.627 207.571 355.935 208.017 348.269C209.241 327.383 211.972 306.317 215.597 285.353C215.632 285.188 215.667 285.028 215.691 284.859C234.516 288.023 253.239 291.945 271.785 296.527C293.411 301.925 314.861 308.121 335.933 315.44C328.383 336.288 319.807 356.623 309.972 376.084C306.479 383.049 302.757 389.843 298.861 396.448C281.985 392.919 265.244 388.764 248.657 384.137ZM234.057 452.536C226.912 450.582 221.408 444.262 217.617 436.375C213.792 428.451 211.428 419.113 209.869 409.44C208.268 399.251 207.516 388.66 207.327 377.92C220.844 382.04 234.469 385.794 248.164 389.227C264.305 393.201 280.568 396.705 296.924 399.663C296.172 400.897 295.428 402.145 294.663 403.363C289.197 412.105 283.371 420.47 277.036 428.049C270.72 435.601 263.868 442.448 256.481 447.268C252.796 449.674 248.985 451.528 245.163 452.479C241.365 453.481 237.525 453.525 234.057 452.536ZM406.917 349.301C395.421 370.248 381.357 389.624 365.101 406.333C359.856 405.904 354.601 405.403 349.391 404.803C333.164 402.876 317.077 400.156 301.104 396.892C304.784 390.351 308.299 383.653 311.665 376.872C321.068 357.882 329.192 338.027 336.468 317.835C336.707 317.18 336.928 316.528 337.161 315.88C348.081 319.705 358.911 323.793 369.596 328.281C382.707 333.912 395.669 340.003 408.041 347.145C407.669 347.858 407.305 348.581 406.917 349.301ZM409.365 347.905C411.419 349.106 413.473 350.324 415.492 351.612C422.744 356.215 429.795 361.215 436.028 367.177C439.12 370.18 442.024 373.425 444.232 377.157C446.415 380.808 447.92 385.287 446.793 389.605C445.64 393.915 442.124 397.068 438.433 399.157C434.653 401.319 430.524 402.704 426.361 403.792C417.997 405.893 409.387 406.755 400.812 407.193C389.775 407.687 378.745 407.343 367.736 406.533C383.601 389.756 397.155 370.437 408.392 349.765C408.713 349.153 409.028 348.528 409.365 347.905ZM228.433 26.28C235.38 24.2814 242.433 22.6174 249.585 21.3134C249.417 21.712 249.268 22.1294 249.155 22.552C248.749 24.1027 248.763 25.7174 249.024 27.1054C249.291 28.504 249.771 29.736 250.327 30.844C251.215 32.5707 252.283 34.032 253.421 35.3653C239.839 43.2373 227.125 53.1294 215.584 64.3867C214.796 65.1614 214.033 65.9827 213.247 66.7747C199.751 65.5534 186.151 64.9 172.46 65.4867C165.369 65.8347 158.244 66.464 151.115 67.8454C160.116 60.4107 169.675 53.6694 179.753 47.7454C195.045 38.7294 211.424 31.492 228.433 26.28ZM136.299 81.2293C136.497 81.1027 136.699 80.9747 136.911 80.86C140.153 78.9707 144.001 77.632 147.953 76.5947C155.905 74.548 164.337 73.6414 172.78 73.18C184.08 72.5947 195.477 72.768 206.88 73.4267C192.347 89.208 179.685 107.075 169.152 126.233C169.055 126.432 168.959 126.62 168.847 126.824C165.875 125.076 162.929 123.288 160.028 121.441C152.924 116.865 146.029 111.904 140.125 106.208C137.211 103.347 134.525 100.287 132.633 97.048C130.708 93.8054 129.813 90.4627 130.566 87.8374C130.661 87.4467 130.812 87.0627 130.977 86.6814C132.731 84.84 134.496 83.0173 136.299 81.2293ZM122.565 96.1027C123.223 98.284 124.168 100.26 125.232 102.06C127.782 106.332 130.941 109.797 134.239 112.979C140.871 119.295 148.171 124.424 155.644 129.167C158.647 131.045 161.691 132.832 164.765 134.561C160.083 143.747 155.861 153.179 152.084 162.804C143.716 162.203 135.333 161.835 126.898 161.845C116.958 161.897 106.958 162.353 96.8896 164.112C91.8984 165.02 86.8755 166.213 81.8989 168.385C89.5151 145.697 100.774 124.245 115.272 105.196C117.617 102.099 120.055 99.0747 122.565 96.1027ZM72.0412 268.832C68.9079 245.533 69.6093 221.768 73.9683 198.688C77.2251 202.999 80.9688 206.504 84.8432 209.74C92.7219 216.237 101.197 221.569 109.811 226.537C117.193 230.727 124.716 234.567 132.331 238.187C130.872 248.589 129.949 259.051 129.532 269.52C126.192 269.52 122.835 269.567 119.474 269.72C110.675 270.168 101.832 271.036 92.974 273.256C88.5593 274.409 84.1177 275.864 79.8115 278.32C77.8995 279.419 76.0177 280.757 74.2869 282.451C73.4084 277.923 72.6427 273.392 72.0412 268.832ZM202.216 439.292C192.788 432.845 184.311 424.844 176.919 415.732C163.083 398.696 153.179 377.968 146.639 355.957C147.541 356.336 148.435 356.737 149.336 357.124C166.745 364.424 184.499 370.767 202.444 376.389C202.493 377.845 202.513 379.292 202.583 380.733C203.051 391.223 204.04 401.613 205.883 411.601C207.735 421.586 210.428 431.307 214.756 439.66C216.513 443.024 218.572 446.109 220.949 448.779C218.955 448.139 216.975 447.463 215.017 446.756C210.6 444.577 206.319 442.108 202.216 439.292ZM347.731 16.724C225.365 -15.6027 99.5131 57.644 67.188 180.017C34.8651 302.388 108.12 428.24 230.488 460.557C352.859 492.886 478.709 419.629 511.028 297.263C543.352 174.889 470.099 49.04 347.731 16.724Z" stroke="#212121" stroke-width="0.666667"/>
<path d="M8.84531 184.924V296.679H569.873V184.924H8.84531Z" fill="#212121"/>
<path d="M488.619 256.028C488.987 256.028 489.195 255.835 489.195 255.563C489.195 255.259 488.987 255.099 488.619 255.099H487.931V256.028H488.619ZM487.388 254.619H488.667C489.291 254.619 489.753 254.923 489.753 255.515C489.753 255.977 489.483 256.267 489.099 256.379L489.851 257.449H489.195L488.524 256.475H487.931V257.449H487.388V254.619ZM490.937 256.089V256.075C490.937 254.715 489.883 253.595 488.475 253.595C487.084 253.595 486.012 254.731 486.012 256.089V256.107C486.012 257.465 487.068 258.584 488.475 258.584C489.865 258.584 490.937 257.449 490.937 256.089ZM485.693 256.107V256.089C485.693 254.572 486.924 253.293 488.475 253.293C490.041 253.293 491.257 254.556 491.257 256.075V256.089C491.257 257.609 490.027 258.889 488.475 258.889C486.908 258.889 485.693 257.627 485.693 256.107Z" fill="#515151"/>
<path d="M86.2364 252.949H89.3693L89.2765 280.449H86.2177L86.2364 252.949Z" fill="#515151"/>
<path d="M103.473 252.949H106.417L123.744 274.928L123.751 252.949H126.777V280.449H124.344L106.557 257.949L106.475 280.449H103.505L103.473 252.949Z" fill="#515151"/>
<path d="M147.916 255.845H138.697V252.971H160.321L160.311 255.824H151.083V280.471H147.936L147.916 255.845Z" fill="#515151"/>
<path d="M172.256 252.857H192.144V255.691H175.395L175.373 265.044L190.395 265.085L190.373 267.899L175.373 267.919L175.395 277.524L192.332 277.585L192.348 280.357H172.256V252.857Z" fill="#515151"/>
<path d="M215.491 267.019C221.401 267.032 223.319 264.324 223.387 260.987C222.985 258.261 221.759 255.777 215.628 255.777L207.787 255.833L207.777 266.964L215.491 267.019ZM204.693 252.949H215.7C219.852 252.949 222.631 253.845 224.464 255.761C225.289 256.624 226.485 258.9 226.485 260.865C226.485 265.463 223.86 268.324 219.055 269.212L227.499 280.448L223.66 280.449L215.655 269.788H207.841L207.797 280.449H204.699L204.693 252.949Z" fill="#515151"/>
<path d="M239.231 252.949H242.192L259.517 275.02L259.515 252.949H262.54L262.548 280.449H260.053L242.331 257.949L242.307 280.449H239.269L239.231 252.949Z" fill="#515151"/>
<path d="M294.267 270.357L288.043 256.389L281.745 270.357H294.267ZM286.619 252.751H289.521L302.053 280.449H298.723L295.551 273.225L280.535 273.201L277.271 280.449H274.071L286.619 252.751Z" fill="#515151"/>
<path d="M317.308 255.807L308.1 255.831V252.949H329.723V255.831H320.477L320.457 280.449H317.332L317.308 255.807Z" fill="#515151"/>
<path d="M341.931 252.949H345.032V280.449H341.931V252.949Z" fill="#515151"/>
<path d="M382.843 266.725V266.647C382.843 259.851 377.733 255.271 372.028 255.331C365.209 255.403 361.247 260.68 361.223 266.619V266.699C361.247 273.203 365.575 276.736 369.083 277.703C376.613 279.78 383.124 273.689 382.843 266.725ZM357.996 266.777V266.699C357.996 259.195 363.717 252.487 371.808 252.477C380.671 252.468 386.032 259.1 386.032 266.603C386.337 274.811 378.689 282.903 368.428 280.548C362.788 279.253 358.121 273.808 357.996 266.777Z" fill="#515151"/>
<path d="M398.72 252.949H401.639L418.96 274.991L418.971 252.949H422.025V280.449H419.523L401.772 257.928L401.751 280.449H398.731L398.72 252.949Z" fill="#515151"/>
<path d="M453.749 270.324L447.477 256.365L441.228 270.365L453.749 270.324ZM446.103 252.751H449.007L461.548 280.449H458.207L454.936 273.179L440.02 273.199L436.728 280.449H433.561L446.103 252.751Z" fill="#515151"/>
<path d="M473.08 252.949H476.187L476.173 277.595L491.695 277.616L491.673 280.449H473.08V252.949Z" fill="#515151"/>
<path d="M39.5724 208.664H26.1817V200.156H62.6437V208.664H49.2536V242.097H39.5724V208.664Z" fill="#515151"/>
<path d="M102.878 221.247V221.127C102.878 213.936 97.3459 207.944 89.55 207.944C81.7552 207.944 76.3484 213.816 76.3484 221.007V221.127C76.3484 228.316 81.8807 234.308 89.6765 234.308C97.4713 234.308 102.878 228.436 102.878 221.247ZM66.2271 221.247V221.127C66.2271 209.203 76.0969 199.437 89.6765 199.437C103.255 199.437 112.999 209.084 112.999 221.007V221.127C112.999 233.049 103.13 242.816 89.55 242.816C75.9713 242.816 66.2271 233.169 66.2271 221.247Z" fill="#515151"/>
<path d="M144.055 224.541L138.208 210.941L132.362 224.541H144.055ZM133.871 199.856H142.797L161.657 242.097H151.536L147.512 232.691H128.904L124.881 242.097H115.011L133.871 199.856Z" fill="#515151"/>
<path d="M164.8 235.985L170.521 229.455C174.481 232.571 178.631 234.548 183.66 234.548C187.62 234.548 190.009 233.049 190.009 230.593V230.473C190.009 228.137 188.5 226.939 181.145 225.14C172.281 222.984 166.56 220.647 166.56 212.319V212.199C166.56 204.589 172.972 199.556 181.963 199.556C188.375 199.556 193.844 201.473 198.308 204.889L193.279 211.839C189.381 209.263 185.547 207.705 181.837 207.705C178.128 207.705 176.179 209.323 176.179 211.36V211.48C176.179 214.236 178.065 215.135 185.672 216.992C194.599 219.209 199.628 222.265 199.628 229.575V229.695C199.628 238.023 192.964 242.696 183.472 242.696C176.808 242.696 170.081 240.479 164.8 235.985Z" fill="#515151"/>
<path d="M217.357 208.664H203.967V200.156H240.428V208.664H227.039V242.097H217.357V208.664Z" fill="#515151"/>
<path d="M247.847 200.156H258.283L269.849 217.891L281.417 200.156H291.853V242.097H282.235V214.716L269.849 232.631H269.599L257.339 214.895V242.097H247.847V200.156Z" fill="#515151"/>
<path d="M327.687 224.541L321.84 210.941L315.991 224.541H327.687ZM317.501 199.856H326.428L345.288 242.097H335.165L331.141 232.691H312.535L308.512 242.097H298.641L317.501 199.856Z" fill="#515151"/>
<path d="M348.431 235.985L354.152 229.455C358.113 232.571 362.261 234.548 367.291 234.548C371.251 234.548 373.641 233.049 373.641 230.593V230.473C373.641 228.137 372.132 226.939 364.777 225.14C355.913 222.984 350.192 220.647 350.192 212.319V212.199C350.192 204.589 356.605 199.556 365.595 199.556C372.007 199.556 377.475 201.473 381.939 204.889L376.911 211.839C373.012 209.263 369.179 207.705 365.468 207.705C361.759 207.705 359.811 209.323 359.811 211.36V211.48C359.811 214.236 361.696 215.135 369.304 216.992C378.231 219.209 383.259 222.265 383.259 229.575V229.695C383.259 238.023 376.595 242.696 367.103 242.696C360.439 242.696 353.712 240.479 348.431 235.985Z" fill="#515151"/>
<path d="M400.988 208.664H387.597V200.156H424.061V208.664H410.671V242.097H400.988V208.664Z" fill="#515151"/>
<path d="M431.477 200.156H464.671V208.364H441.097V216.872H461.843V225.081H441.097V233.889H464.985V242.097H431.477V200.156Z" fill="#515151"/>
<path d="M493.087 220.528C497.801 220.528 500.504 218.131 500.504 214.596V214.476C500.504 210.521 497.613 208.484 492.897 208.484H483.28V220.528H493.087ZM473.597 200.156H493.715C499.311 200.156 503.647 201.653 506.54 204.409C508.991 206.747 510.311 210.041 510.311 213.996V214.116C510.311 220.887 506.477 225.14 500.881 227.117L511.632 242.097H500.316L490.887 228.676H483.28V242.097H473.597V200.156Z" fill="#515151"/>
<path d="M516.032 235.985L521.753 229.455C525.712 232.571 529.863 234.548 534.892 234.548C538.853 234.548 541.241 233.049 541.241 230.593V230.473C541.241 228.137 539.733 226.939 532.376 225.14C523.515 222.984 517.793 220.647 517.793 212.319V212.199C517.793 204.589 524.204 199.556 533.195 199.556C539.608 199.556 545.077 201.473 549.54 204.889L544.512 211.839C540.613 209.263 536.777 207.705 533.069 207.705C529.361 207.705 527.411 209.323 527.411 211.36V211.48C527.411 214.236 529.296 215.135 536.903 216.992C545.829 219.209 550.861 222.265 550.861 229.575V229.695C550.861 238.023 544.196 242.696 534.704 242.696C528.04 242.696 521.313 240.479 516.032 235.985Z" fill="#515151"/>
<defs>
<linearGradient id="paint0_linear_18_4" x1="-95.4707" y1="240.152" x2="356.111" y2="240.152" gradientUnits="userSpaceOnUse">
<stop stop-color="white"/>
<stop offset="1" stop-color="#515151"/>
</linearGradient>
</defs>
</svg>
